<?xml version="1.0" encoding="UTF-8"?>
<!DOCTYPE svg PUBLIC "-//W3C//DTD SVG 1.1//EN" "http://www.w3.org/Graphics/SVG/1.1/DTD/svg11.dtd">
<!-- Creator: CorelDRAW 2021 (64-Bit) -->
<svg xmlns="http://www.w3.org/2000/svg" xml:space="preserve" width="11.6929in" height="8.26772in" version="1.1" style="shape-rendering:geometricPrecision; text-rendering:geometricPrecision; image-rendering:optimizeQuality; fill-rule:evenodd; clip-rule:evenodd"
viewBox="0 0 11692.91 8267.72"
 xmlns:xlink="http://www.w3.org/1999/xlink"
 xmlns:xodm="http://www.corel.com/coreldraw/odm/2003">
 <defs>
  <style type="text/css">
   <![CDATA[
    .fil2 {fill:#0079B2}
    .fil39 {fill:#083945}
    .fil77 {fill:#0D292F}
    .fil33 {fill:#0D4959}
    .fil18 {fill:#0D5A75}
    .fil0 {fill:#127D21}
    .fil80 {fill:#131313}
    .fil45 {fill:#13424D}
    .fil54 {fill:#146B8E}
    .fil37 {fill:#153B47}
    .fil81 {fill:#174855}
    .fil90 {fill:#1A1A1A}
    .fil30 {fill:#1A444B}
    .fil15 {fill:#1B4955}
    .fil43 {fill:#1F7FA6}
    .fil83 {fill:#232323}
    .fil44 {fill:#254B58}
    .fil46 {fill:#26525C}
    .fil82 {fill:#282617}
    .fil86 {fill:#28768E}
    .fil41 {fill:#318A98}
    .fil84 {fill:#35646B}
    .fil85 {fill:#36555A}
    .fil35 {fill:#365A67}
    .fil87 {fill:#386657}
    .fil92 {fill:#386975}
    .fil14 {fill:#3A7B86}
    .fil57 {fill:#437B85}
    .fil28 {fill:#437D8A}
    .fil69 {fill:#4A838E}
    .fil13 {fill:#4AAAC6}
    .fil60 {fill:#50958D}
    .fil58 {fill:#53828D}
    .fil50 {fill:#548592}
    .fil31 {fill:#548995}
    .fil47 {fill:#557B88}
    .fil67 {fill:#58937A}
    .fil24 {fill:#5B8693}
    .fil56 {fill:#5B8A95}
    .fil40 {fill:#5C8C99}
    .fil91 {fill:#5E6036}
    .fil62 {fill:#64919D}
    .fil68 {fill:#668B97}
    .fil88 {fill:#686868}
    .fil79 {fill:#6A7C83}
    .fil22 {fill:#6B929E}
    .fil38 {fill:#6BBAC7}
    .fil70 {fill:#6C9275}
    .fil61 {fill:#6C94A2}
    .fil72 {fill:#727051}
    .fil71 {fill:#729F72}
    .fil52 {fill:#7395A2}
    .fil59 {fill:#739AA5}
    .fil36 {fill:#775965}
    .fil51 {fill:#7A9AA6}
    .fil66 {fill:#88B6BB}
    .fil89 {fill:#8C9494}
    .fil21 {fill:#91906F}
    .fil10 {fill:#925C6C}
    .fil16 {fill:#96CDD5}
    .fil78 {fill:#97BBC5}
    .fil32 {fill:#98C7B6}
    .fil49 {fill:#9AC6C8}
    .fil42 {fill:#9F8C5C}
    .fil53 {fill:#ABCCAD}
    .fil29 {fill:#B2B170}
    .fil17 {fill:#B3D1B7}
    .fil27 {fill:#B4A78A}
    .fil25 {fill:#B4CEAB}
    .fil23 {fill:#CAE7E9}
    .fil55 {fill:#CEAF8B}
    .fil8 {fill:#D5D7A4}
    .fil20 {fill:#D99587}
    .fil63 {fill:#DAB696}
    .fil26 {fill:#DCAA97}
    .fil9 {fill:#E1D9AD}
    .fil34 {fill:#E2B39C}
    .fil64 {fill:#E3D9B1}
    .fil48 {fill:#E5D6B5}
    .fil11 {fill:#E79192}
    .fil19 {fill:#E87B85}
    .fil73 {fill:#E99BA1}
    .fil6 {fill:#E9D9BD}
    .fil76 {fill:#EDD7C3}
    .fil65 {fill:#EDD8C2}
    .fil7 {fill:#F1D9CA}
    .fil74 {fill:#F4D6D3}
    .fil75 {fill:#F5F4F4}
    .fil12 {fill:#F6BCC1}
    .fil5 {fill:#F8CED2}
    .fil3 {fill:white}
    .fil94 {fill:black;fill-rule:nonzero}
    .fil1 {fill:url(#id0)}
    .fil4 {fill:url(#id1)}
    .fil93 {fill:url(#id2);fill-opacity:0.258824}
   ]]>
  </style>
  <linearGradient id="id0" gradientUnits="userSpaceOnUse" x1="1231.19" y1="4284.5" x2="9362.6" y2="4284.5">
   <stop offset="0" style="stop-opacity:1; stop-color:#0079B2"/>
   <stop offset="1" style="stop-opacity:1; stop-color:#127D21"/>
  </linearGradient>
  <linearGradient id="id1" gradientUnits="userSpaceOnUse" xlink:href="#id0" x1="1031.47" y1="4764.72" x2="9744.04" y2="4764.72">
  </linearGradient>
  <linearGradient id="id2" gradientUnits="userSpaceOnUse" x1="1390.26" y1="5184.63" x2="4532.41" y2="5184.63">
   <stop offset="0" style="stop-opacity:1; stop-color:#0279A3"/>
   <stop offset="0.619608" style="stop-opacity:1; stop-color:#067984"/>
   <stop offset="1" style="stop-opacity:1; stop-color:#0A7864"/>
  </linearGradient>
 </defs>
 <g id="Layer_x0020_1">
  <metadata id="CorelCorpID_0Corel-Layer"/>
  <g id="_2493568905312">
   <path class="fil0" d="M10501.36 4427.9c148.24,-16.15 440.58,-51.03 582.52,-19.25l-387.72 39.5c-292.66,27.83 -904.43,177.5 -1140.91,406.06 395.17,-73.17 824.84,311.26 1010.85,369.83 280.52,88.33 656.99,-76.21 928.09,-409.96 103.35,-127.23 296.12,-478.54 286.97,-597.54 -291.89,26.83 -270.21,1.25 -574.11,-115.96 -226.81,-87.48 -393.04,-60.26 -573.39,-31.58 -573.57,91.22 -818.44,389.41 -1228.99,729.73l-212.97 -1.33 65.35 46.49 170.87 -2.51c346.59,-270.4 620,-364.05 1073.44,-413.46z"/>
   <path class="fil0" d="M9572.05 2805.99c5.35,100.78 82.66,205.04 -78.25,462.65 -101.46,162.43 -282.28,312.39 -352.72,485.47 -104.33,256.34 -7.87,588.35 150.24,806.25 18.28,25.2 37.39,48.88 57.11,70.73 4.98,5.52 10,10.92 15.05,16.2 56.81,-533.66 395.92,-852.76 393.48,-1303.58 98.76,355.07 -252.15,912.15 -378.22,1368.22l61.8 -0.53c193.23,-346.67 585.96,-510.82 631.27,-1043.9 24.45,-287.75 -139.87,-639.19 -499.76,-861.52z"/>
   <path class="fil0" d="M10068.67 4010.24c3.21,-1.44 9.77,-6.87 9.19,-5.23 -8.24,23.07 70.43,-59.6 92.02,-78.73 210.17,-186.19 282.78,-171.2 496.11,-250.87 62.36,-23.29 138.08,-71.7 201.11,-87.95 -105.65,95.59 -318.63,146.95 -437.5,207.7 -161.23,82.4 -306.08,239.18 -419.95,402.87 425.31,-294.72 464.83,-158.57 775.03,-303.11 283.53,-132.11 482.41,-526.11 516.61,-780.17 -496.85,534.63 -855.68,158.69 -1144.88,705.2l-81.15 161.49c-9.37,28.91 -4.95,16.48 -6.57,28.8z"/>
   <path class="fil1" d="M1419.87 3854.36l526.04 629.3 7076.7 0c8.42,-26.64 29.87,-45.96 62.76,-45.96 32.89,0 65.81,29.46 65.81,65.81 0,36.35 -35.52,65.81 -65.81,65.81 -30.29,0 -45.39,-13.09 -56.82,-32.59l-2022.49 -1.16 -9.36 28.17c-2.08,6.27 1826.5,-1.14 1830.01,4.07 8.85,13.14 18.23,25.82 27.94,37.95l-855.39 -0.56 -24.43 37.8 -342.01 0 0 28 323.91 0 -0.02 0.03 19.17 -0.03 0.87 0 20.04 -0.03 16.8 -26.64 1277.33 -2.62 9.02 -102.66 62.68 108.24 -16.35 67.34 -6205.24 0c-33.75,-46.66 -203.14,-80.52 -216.86,-213.75 -70.39,-50.51 -248.14,157.64 -293.69,213.75l-827.04 0 -572.22 -689.97 188.67 -170.3zm7665.49 619.7c16.26,0 29.45,13.19 29.45,29.45 0,16.26 -13.19,29.45 -29.45,29.45 -16.26,0 -29.45,-13.19 -29.45,-29.45 0,-16.26 13.19,-29.45 29.45,-29.45z"/>
   <path class="fil2" d="M799.24 4199.25c466.3,107.94 299.54,796.72 -153.59,694.16 -165.93,-37.56 -313.56,-205.95 -270.75,-417.28 34.95,-172.53 209.75,-326.56 424.34,-276.88z"/>
   <path class="fil2" d="M1184.06 4967.48c220.76,37.23 170.36,370.22 -54.49,334.69 -217.88,-34.43 -165.8,-371.85 54.49,-334.69z"/>
   <path class="fil2" d="M977.04 5464.92c-38.76,154.39 -284.28,103.43 -244.53,-64.78 36.78,-155.65 287.28,-105.46 244.53,64.78z"/>
   <path class="fil2" d="M1228.23 2934.44c795.04,184.04 510.72,1358.42 -261.87,1183.55 -282.91,-64.04 -534.61,-351.15 -461.63,-711.46 59.59,-294.17 357.63,-556.78 723.5,-472.09z"/>
   <path class="fil3" d="M765.76 4350.74c263.05,60.89 168.98,449.44 -86.64,391.59 -93.6,-21.19 -176.88,-116.18 -152.74,-235.39 19.71,-97.33 118.32,-184.22 239.37,-156.2z"/>
   <path class="fil3" d="M1185.94 3125.85c538.22,124.59 345.74,919.63 -177.28,801.24 -191.52,-43.35 -361.93,-237.72 -312.52,-481.65 40.33,-199.15 242.11,-376.93 489.8,-319.59z"/>
   <path class="fil4" d="M5015.98 5024.9l-497.69 -1.75c31.6,-68.55 66.99,-139.67 83.4,-186.87 4.89,-14.06 7.3,-25 7.7,-33.36l4421.39 2.35 81.93 49.48 -1543.18 0 0 37.16 1931.48 0 60.23 -43.38 132.5 -17.01 -156.02 124.08 -2115.18 0 -66.51 -67.43 -589.77 0 0 29.44 571.11 0 61.74 61.41 2343.52 0.87c9.09,-23.08 27.57,-39.42 57.91,-39.42 30.34,0 62.22,27.86 62.22,62.22 0,34.36 -31.77,62.22 -62.22,62.22 -30.45,0 -1416.77,-16.62 -4784.57,-40.02zm-945.32 -2.76l-408.14 -1.61 0.26 -0.3c-9.67,-48.85 -111.44,-73.7 -150.96,-55.84 -66.97,30.28 -66.56,27.25 -133.56,1.79 -44.69,-16.98 -30.99,-12.33 -78.15,-23.43 -27.44,-6.45 -114.91,-14.86 -129.5,-22.16 27.29,-35.48 25.66,-21.26 86.63,-23.59 -7.79,-34.9 -13.62,-75.27 -36.21,-95.15l1171.69 0.98c-81.3,37.31 -133.87,64.7 -201.9,114.07 -51.33,37.24 -80.82,69.27 -120.15,105.22zm-2202.07 -6.93l-161.82 -0.77 -389.36 -349.54 -285.94 -0.07 4.28 -159.38 392.96 -0.91 308.02 296.25 796.07 0.66c-40.49,58.2 -480.75,38.06 -664.2,213.76zm7931.96 -42.65c16.65,0 30.13,13.49 30.13,30.13 0,16.64 -13.49,30.14 -30.13,30.14 -16.65,0 -30.14,-13.5 -30.14,-30.14 0,-16.64 13.49,-30.13 30.14,-30.13z"/>
   <path class="fil3" d="M6959.56 4496.66c28.6,0 51.79,23.19 51.79,51.79 0,28.6 -23.19,51.79 -51.79,51.79 -28.6,0 -51.79,-23.19 -51.79,-51.79 0,-28.6 23.19,-51.79 51.79,-51.79zm0 26.7c13.85,0 25.08,11.23 25.08,25.08 0,13.85 -11.23,25.08 -25.08,25.08 -13.85,0 -25.08,-11.23 -25.08,-25.08 0,-13.85 11.23,-25.08 25.08,-25.08z"/>
   <path class="fil3" d="M7587.74 4601.85c28.6,0 51.79,23.19 51.79,51.79 0,28.6 -23.19,51.79 -51.79,51.79 -28.6,0 -51.79,-23.19 -51.79,-51.79 0,-28.6 23.19,-51.79 51.79,-51.79zm0 26.7c13.85,0 25.08,11.23 25.08,25.08 0,13.85 -11.23,25.09 -25.08,25.09 -13.85,0 -25.08,-11.23 -25.08,-25.09 0,-13.85 11.23,-25.08 25.08,-25.08z"/>
   <path class="fil3" d="M7530.99 4818.89c27.96,0 50.62,22.66 50.62,50.62 0,27.95 -22.66,50.61 -50.62,50.61 -27.96,0 -50.62,-22.66 -50.62,-50.61 0,-27.96 22.66,-50.62 50.62,-50.62zm0 26.1c13.54,0 24.52,10.98 24.52,24.52 0,13.54 -10.98,24.52 -24.52,24.52 -13.54,0 -24.52,-10.98 -24.52,-24.52 0,-13.54 10.98,-24.52 24.52,-24.52z"/>
   <path class="fil3" d="M6734.32 4842.17c33.52,0 60.7,27.18 60.7,60.7 0,33.52 -27.18,60.7 -60.7,60.7 -33.52,0 -60.7,-27.18 -60.7,-60.7 0,-33.52 27.18,-60.7 60.7,-60.7zm0 31.3c16.24,0 29.4,13.16 29.4,29.4 0,16.24 -13.16,29.4 -29.4,29.4 -16.24,0 -29.4,-13.16 -29.4,-29.4 0,-16.24 13.17,-29.4 29.4,-29.4z"/>
   <circle class="fil3" cx="1901" cy="5213.15" r="61.46"/>
   <g>
    <path class="fil5" d="M2098.51 5412.26c12.1,64.46 172.25,36.46 235.87,45.78 27.2,3.98 59.19,15.01 83.79,14.24 50.68,-1.01 104.23,3.11 152.67,-10.8 31.71,-9.11 204.31,-15.43 240.27,-13.3 28.8,1.7 10.84,4.61 28.78,-2.06 49.64,-18.45 261.09,-16.16 288.47,-22.06 70.7,-15.24 104.49,-5.7 132.04,-14.02 39.61,-11.95 72.33,5.1 138.51,-14.07 12.98,-3.76 109.28,-16.01 135.09,-12.84l13.94 0.97c83.46,-25.45 168.03,-50.09 266.59,-51.72 76.9,-1.27 234.75,17.86 268.38,-44.37l1.23 -22.8 -40.78 -7.88c-0.17,0.01 -11.41,1.32 -13.4,1.47 -23.73,1.81 -50.1,-0.61 -73.33,1.52 -27.65,2.53 -32.48,11.06 -63.88,8.41 -30.21,-2.56 -88.2,6.2 -118.48,4.15 -65.54,-4.43 -23.12,-0.9 -68.51,6.8 -7.93,1.34 -1.25,0.61 -11.81,0.02 -6.2,-0.35 -22.13,-0.62 -22.32,-0.61l-165.34 14.32c-25.4,4.29 -33.59,9.32 -70.05,9.16 -102.78,-0.44 -54.33,2.37 -105.69,9.36 -9.52,1.3 -26.01,1.24 -36.27,1.53 -47.07,1.34 -164.47,2.88 -205.89,14.56 -27.55,7.77 -152.48,5.84 -193.48,8.26 -22.72,1.34 -29.45,6.5 -51.79,6.56 -64.48,0.15 -168.12,20.13 -247.57,23.48 -84.27,3.56 -24.3,-1.23 -86.42,10.08 -11.96,2.18 5.46,0.53 -10.59,0.53 -63.66,0 -36.16,10.15 -92.43,9.64 -81.37,-0.73 -107.15,15.57 -197.27,12.86 -6.72,-0.2 -48.15,-3.05 -57.75,0.69l-12.73 8.7c-21,10.24 -13.05,2.09 -33.18,-10.92l-6.66 14.35z"/>
    <path class="fil6" d="M3853.32 5207.4c-21.78,14.39 -21.65,1.41 -23.92,0 6.23,-3.79 -8.52,-8.12 11,-9 15.46,-0.7 10.3,6.12 12.93,9zm-888.34 -72.19l3.17 14.98 215.88 9.09c7.24,0.35 28.86,1.54 34.66,-0.23 19,-5.79 7.46,-10.72 22.96,-16.49l4.57 7.98c0.5,0.97 1.38,2.77 1.85,3.72 15.53,30.96 -5.4,-7.54 4.09,9.43l121.41 7.3c30.32,-0.63 2.98,-1.54 31.2,-10.46l14.82 10.11c8.65,3.42 78.83,20.43 94.22,17.54 9.64,-1.81 6.87,-2.07 13.98,-4.7 7.05,-2.6 3.95,-4.19 13.44,-5.69 0.89,1.49 1.56,3.5 2.16,4.73 0.58,1.19 1.45,3.17 2.15,4.57l11.46 19.93c-17.4,8.54 -75.96,4.08 -101.31,3.8 -6.66,-0.07 -13.85,0.22 -22.91,3.81 -57.44,22.72 -64.13,6.84 -122.81,13.22 -26.23,2.85 -17.98,9.09 -47.17,10.26 -27.07,1.09 -30.87,-1.37 -53.5,4.4l-266.18 18.45c-9.78,0.69 -6.87,0.2 -17.34,2.97 -43.29,11.43 -84.28,3.57 -116.88,7.61 -15.54,1.92 -27.62,7.02 -50.61,7.83 -19.68,0.7 -37.46,-1.01 -56.92,2.2 -26.86,4.43 -20.05,6.27 -36.9,4.88 -52.15,-4.29 -113.65,15.53 -157.49,12.81 -57.63,-3.57 -68.33,7.66 -89.45,8.9 -19.53,1.15 -39.75,0.62 -85.41,2.57 -30.84,1.32 -22.06,7.38 -47.4,10.13l-141.2 8.66c-27.59,4.93 -41.11,16.41 -75.2,-1.15 2.13,19.54 2.47,43.11 14.86,54.74l7.46 -16.21 89.46 -10.44c36.78,-3.3 83,-1.2 121,-2.52 35.19,-1.23 29.81,-8.8 110.13,-10 88.13,-1.32 48.28,-2.53 110.9,-9.57 41.61,-4.68 77.48,2.82 111.91,-9.46 52.72,-18.81 97.83,-6.6 137.47,-12.24l17.25 -5.52c15.06,-4.35 35.39,-3.31 53.41,-3.45 76.92,-0.57 65.36,-5.78 98.53,-7.92l185.22 -13.65c48.76,-1.2 55.94,-8.55 99.61,-9.87l452.73 -32.09c33.74,-2.79 11.34,-8.84 46.92,-9.98 -0.83,0.42 -11.46,-10.39 0.03,24.5 29,-1.96 23.44,-7.23 52.87,-9.61 37.44,-3.04 61.72,2.42 85.7,-9.44 43.99,-21.75 93.06,-11.47 155.27,-11.6 6.46,13.65 -5.65,8.33 11.49,3.45l27.5 -12.46c0.56,-0.39 1.74,-1.5 2.28,-1.86l28.84 -14.93 -0.11 -7.64c-49.39,-35.61 -40.6,-21.3 -65.13,-21.74 -1.22,-0.02 -2.74,0.01 -3.93,-0.13l-7.38 -2.09c-41.75,-13.55 -26.19,-6.64 -83.98,-4.96l-14.45 2.87c-45.26,4.96 -88.37,7.69 -136.46,6.62 -44.75,-1 -91.13,-11.46 -128.67,-11.02 4.73,5.13 4.38,8.23 10.48,10.47 -5.46,22.67 0.85,14.44 -14.74,19.17l-1.22 -22.01c-24.55,-4.58 -36.57,-6.91 -60.49,-14.6 -17.15,-5.51 -43.16,-11.39 -56.35,-20.34l-13.45 16.41c-10.54,6.87 -0.46,7.53 -18.19,2.32l-11.69 -23.85c-11.84,-0.88 -30.69,-5.12 -36.74,-3.92 -24.36,4.86 -1.52,10.76 -26.33,15.1 -23.37,-20.59 0.5,-8.13 -10.51,-24.38 -7.32,-0.54 -13.04,-1.39 -20.25,-0.55 -15.73,1.83 -8.32,1.94 -11.87,3.09l-29.69 10.36 -15.54 -0.87 -2.59 -13.46c-23.36,-0.37 -21.78,2.04 -37.32,3.64 -54.54,5.59 -198.67,2.95 -234.77,11.82 -30.27,7.44 -56.48,4.05 -92.83,6.68z"/>
    <path class="fil7" d="M2083.17 5383.1c1.24,20.17 -0.59,18.44 15.34,29.15l6.66 -14.35c20.13,13.01 12.19,21.16 33.18,10.92l12.73 -8.7c9.6,-3.73 51.03,-0.89 57.75,-0.69 90.11,2.72 115.89,-13.59 197.27,-12.86 56.27,0.51 28.77,-9.64 92.43,-9.64 16.06,0 -1.36,1.65 10.59,-0.53 62.12,-11.31 2.15,-6.52 86.42,-10.08 79.45,-3.36 183.1,-23.33 247.57,-23.48 22.33,-0.06 29.06,-5.21 51.79,-6.56 41,-2.42 165.94,-0.49 193.48,-8.26 41.41,-11.68 158.81,-13.22 205.89,-14.56 10.26,-0.29 26.76,-0.24 36.27,-1.53 51.35,-7 2.91,-9.81 105.69,-9.36 36.46,0.16 44.65,-4.87 70.05,-9.16l165.34 -14.32c0.19,-0 16.12,0.27 22.32,0.61 10.56,0.59 3.89,1.32 11.81,-0.02 45.39,-7.7 2.97,-11.22 68.51,-6.8 30.28,2.04 88.27,-6.71 118.48,-4.15 31.4,2.66 36.23,-5.87 63.88,-8.41 23.23,-2.13 49.6,0.28 73.33,-1.52 2,-0.15 13.23,-1.46 13.4,-1.47l40.78 7.88 -1.23 22.8c15.41,-24.25 12.54,-45.96 6.66,-75.78l-0.39 -14 -28.84 14.93c-0.54,0.36 -1.72,1.47 -2.28,1.86l-27.5 12.46c-17.14,4.88 -5.04,10.2 -11.49,-3.45 -62.21,0.13 -111.28,-10.15 -155.27,11.6 -23.99,11.86 -48.27,6.4 -85.7,9.44 -29.43,2.39 -23.87,7.65 -52.87,9.61 -11.49,-34.89 -0.86,-24.09 -0.03,-24.5 -35.58,1.14 -13.18,7.2 -46.92,9.98l-452.73 32.09c-43.67,1.32 -50.85,8.68 -99.61,9.87l-185.22 13.65c-33.17,2.14 -21.61,7.35 -98.53,7.92 -18.02,0.13 -38.35,-0.9 -53.41,3.45l-17.25 5.52c-39.64,5.65 -84.74,-6.57 -137.47,12.24 -34.43,12.28 -70.3,4.78 -111.91,9.46 -62.62,7.04 -22.77,8.25 -110.9,9.57 -80.33,1.2 -74.94,8.77 -110.13,10 -38,1.32 -84.23,-0.78 -121,2.52l-89.46 10.44 -7.46 16.21z"/>
    <path class="fil8" d="M2837.31 5150.89c-4.02,12.7 4.22,6.23 -10.87,10.8l-194.37 11.37c-63.96,-0.87 -139.8,15.06 -199.87,19.74 -74.37,5.8 -151.74,-2.16 -222.05,14.09 -1.51,0.35 -2.81,0.71 -4.41,1 -6.93,1.28 -8.28,0.94 -14.93,1.48l-171.71 15.46 -2.37 17.35c8.73,10.25 8.79,7.46 17.87,21.1 9,13.53 8.53,16.78 22.01,26.94 5.7,-15.97 0.09,-10.01 7.62,-4.79l11.64 -3.63c1.35,-0.2 2.92,-0.46 4.48,-0.63 4.63,-0.5 20.13,-0.3 25.85,-0.36l243.04 -19.8c17.2,-2.42 34.32,-2.17 51.73,-2.41 42.69,-0.6 45.33,-5.58 78.86,-8.76 31.66,-3 65.12,0.39 96.59,-4.54 81.78,-12.83 87.33,0.9 151.94,-15.1l248.67 -15.36c19.8,-1.72 48.3,-9.28 85.89,-9.08 81.79,0.44 48.87,-7.32 89.09,-9.83 27.44,-1.71 68.45,-2.49 95.74,-2.67l127.3 -12c19.22,3.13 -7.78,10.69 40,15.59 6.39,-15.07 2.76,-6.61 4.52,-26.22l-14.82 -10.11c-28.22,8.91 -0.87,9.82 -31.2,10.46l-121.41 -7.3c-9.49,-16.98 11.44,21.52 -4.09,-9.43 -0.48,-0.94 -1.35,-2.75 -1.85,-3.72l-4.57 -7.98c-15.51,5.77 -3.97,10.7 -22.96,16.49 -5.8,1.77 -27.42,0.57 -34.66,0.23l-215.88 -9.09 -3.17 -14.98c-25.4,3.61 -5.18,5.59 -24.68,12.13l-102.99 3.54z"/>
    <path class="fil9" d="M2056.62 5290.23l7.15 39 4.54 -0.87c34.09,17.56 47.61,6.07 75.2,1.15l141.2 -8.66c25.34,-2.75 16.56,-8.81 47.4,-10.13 45.66,-1.96 65.88,-1.43 85.41,-2.57 21.12,-1.24 31.82,-12.48 89.45,-8.9 43.84,2.72 105.34,-17.1 157.49,-12.81 16.85,1.39 10.04,-0.46 36.9,-4.88 19.46,-3.21 37.24,-1.5 56.92,-2.2 22.99,-0.81 35.07,-5.91 50.61,-7.83 32.6,-4.04 73.59,3.83 116.88,-7.61 10.46,-2.76 7.56,-2.28 17.34,-2.97l266.18 -18.45c22.63,-5.77 26.43,-3.31 53.5,-4.4 29.19,-1.17 20.94,-7.41 47.17,-10.26 58.69,-6.38 65.37,9.5 122.81,-13.22 9.07,-3.59 16.26,-3.89 22.91,-3.81 25.35,0.28 83.91,4.74 101.31,-3.8l-11.46 -19.93c-0.7,-1.39 -1.57,-3.38 -2.15,-4.57 -0.59,-1.22 -1.27,-3.24 -2.16,-4.73 -9.49,1.5 -6.39,3.09 -13.44,5.69 -7.12,2.62 -4.35,2.89 -13.98,4.7 -15.39,2.89 -85.57,-14.11 -94.22,-17.54 -1.76,19.61 1.86,11.16 -4.52,26.22 -47.77,-4.9 -20.77,-12.45 -40,-15.59l-127.3 12c-27.29,0.17 -68.3,0.95 -95.74,2.67 -40.22,2.51 -7.31,10.27 -89.09,9.83 -37.59,-0.2 -66.1,7.36 -85.89,9.08l-248.67 15.36c-64.61,16 -70.16,2.28 -151.94,15.1 -31.47,4.93 -64.93,1.54 -96.59,4.54 -33.53,3.18 -36.17,8.16 -78.86,8.76 -17.41,0.24 -34.53,-0.01 -51.73,2.41l-243.04 19.8c-5.72,0.06 -21.23,-0.13 -25.85,0.36 -1.56,0.17 -3.13,0.43 -4.48,0.63l-11.64 3.63c-7.53,-5.22 -1.92,-11.18 -7.62,4.79z"/>
    <path class="fil10" d="M2307.35 5572.69c-17.52,35.6 -44.33,38.67 -50.92,61.52 -2.89,8.19 7.26,7.09 -14.44,19.44 -7.14,4.07 -18.35,5.31 -26.93,6.57 19.27,11.08 13.8,-0.37 22.02,15.27 35.63,9.43 158.72,11.75 205.7,12.58 43.56,0.77 186.93,-10.19 214.56,-1.48 -7.58,-16.61 -33.56,-8.57 -54.04,-10.25 52.99,-2.52 197.67,-12.6 241.13,-4.49 67.98,19.76 228.81,-29.64 299.15,-37.59 17.86,-29.5 225.78,-58.28 315.55,-111.21l-44.37 -5.6c3.72,-3.19 2.45,-3.34 9.16,-6.97 11.31,-6.11 2.74,-1.45 12.57,-5.53l-10.59 -2.8 -54.66 12.44c-13.56,7.72 -133.21,43.05 -157.18,42.35l-22.41 10.65c-171.19,49.73 -464.47,61.6 -638.49,61.67 -59.67,0.03 -186.72,12.05 -211.98,-29.42 -0.94,-21.81 0.93,-32.11 9.73,-48.06l20.52 -30.74c1.66,-23.01 -1.56,-20.1 -24.78,-24.77l-1.31 7.17c4.54,18.22 -27.04,49.22 -37.97,69.24z"/>
    <path class="fil11" d="M2988.78 5494.51c-68.46,7.68 -137.15,20.36 -204.58,25.09 -37.99,2.67 -77.51,3.24 -115.59,1.96 -37,-1.24 -72.21,-9.09 -105,-9.69 -46.04,-0.45 -61.36,-0.92 -94.05,4.38 -38.79,6.28 -68.76,-0.7 -98.14,4.79l-20.52 30.74c-8.8,15.94 -10.67,26.25 -9.73,48.06l537.84 -30.2c10.07,-32.22 -14.73,25.67 -5.26,-9.63 34.36,-7.3 94.03,-3.8 131.66,-6.09 43.43,-2.65 20.14,-13.03 106.82,-9.08 19.88,0.91 62.61,-1.81 92.63,-2.93 0.33,0.78 -0.01,1.49 0.01,2.56l0.44 6.47c1.27,2.99 -1.93,2.29 8.74,5.99 23.97,0.7 143.62,-34.63 157.18,-42.35 -34.41,-26.51 -48.45,-0.97 -92.43,-12.09l-107.85 -2.17c-27.44,2.71 -52.04,2.69 -81.71,2.74l-2.04 -4.6c-11.54,-13.42 10.1,2.67 -2.77,-2.8l-69.02 7.85c-29.58,-0.41 -24.57,-5.53 -26.63,-9z"/>
    <path class="fil12" d="M2418.17 5472.28c22.26,22.38 115.01,25.26 145.44,39.59 32.79,0.6 68,8.45 105,9.69 38.08,1.28 77.6,0.7 115.59,-1.96 67.43,-4.73 136.12,-17.42 204.58,-25.09 59.45,-4.87 519.27,-87.98 545.21,-111.38 -25.81,-3.17 -122.12,9.08 -135.09,12.84 -66.18,19.17 -98.9,2.11 -138.51,14.07 -27.55,8.32 -61.33,-1.22 -132.04,14.02 -27.38,5.9 -238.83,3.61 -288.47,22.06 -17.94,6.67 0.02,3.76 -28.78,2.06 -35.96,-2.13 -208.56,4.19 -240.27,13.3 -48.44,13.91 -101.98,9.8 -152.67,10.8z"/>
    <path class="fil13" d="M2163.27 5005.41c-16.11,15.2 -22.1,9.15 -42.43,17.62 -37.68,15.68 -4.01,4.77 -19.69,35.11 -7.05,-4.43 -3.26,-2.72 -9.05,-8.83 -0.75,-0.79 -1.81,-2.07 -2.6,-2.91 -0.87,-0.92 -2.1,-2.24 -2.93,-3.12l-46.8 5.54 -14.54 8.8c-18.49,8.93 -26.15,6.61 -45.15,25.26 0.91,0.55 2.37,0.29 2.76,1.61 0.42,1.44 2.36,1.47 2.93,1.86l10.25 7.31c15.67,-15.87 7.19,-16.68 78.89,-18.61 34.8,-0.94 68.45,-9.6 104.02,-7.25 26.21,-0.73 36.05,-3.72 62.8,-9.38 8.71,-1.85 20.68,-3.81 29.93,-5.49 24.74,-4.49 15.7,2.75 30.47,-10.89 5.2,-18.67 -4,-5.21 9.24,-16.89 14.21,10.76 7.32,-2.97 9.02,20.03 136.65,-14.67 198.21,-21.35 332.94,-22.89 28.43,-0.33 26.85,-4.47 41.71,13.64 10.48,-4.67 7.91,-13.41 41.74,-12.89 16.63,0.26 36.96,1.86 49.59,2.34 47.96,-1.11 0.43,-11.28 50.27,-13.15 38.23,-1.44 31.05,4.07 53.61,-13.79l-2.59 -29.94c-31.63,-3.48 -104.87,-14.09 -130.7,-6.19 -40.37,-6.57 -74.3,-7.89 -119.73,-8.35 -0.7,1.24 -1.32,3.03 -1.71,3.91 -0.39,0.87 -1.22,2.8 -1.69,3.85 -3.71,8.2 0.3,-0.19 -3.33,7.43 -4,8.39 -3.04,7.9 -6.99,13.37l-23.57 -1.22 -11.35 -20.03c-0.42,-0.76 -1.65,-1.65 -1.95,-3.55 -0.31,-1.93 -1.21,-2.46 -1.97,-3.59 -29.92,-0.14 -59.56,1.19 -89.43,2.65 -81.21,3.97 -39.35,5.87 -68.24,18.95 -21.72,-14.34 1.61,-9.35 -26.28,-10.98l-94.37 12.59c-65.48,10.4 -88.44,8.15 -98.93,35.48 -27.96,-8.48 -13.54,-6.04 -44.16,-7.42z"/>
    <path class="fil14" d="M4476.74 4899.57c-1.85,0.31 -10.07,1.68 -12.09,1.58 -9.72,-0.5 -9.14,-2.62 -13.18,-4.32l9.52 -20.65c27.03,-2.72 32.44,9.26 25.8,37.04l-20.64 3.18 10.59 -16.82zm-10.47 -99.09l-39.23 19.51c-35.02,18.45 -33.92,10.58 -40.61,23.44 1.33,23.35 -2.62,15.64 -24.53,28.41 -10.4,6.07 -15.97,9.94 -28.96,18.07l-48.47 35.91c-0.85,0.62 -2.08,1.57 -2.92,2.21l-23.36 18.61c-0.83,0.7 -2,1.72 -2.81,2.44l-20.16 16.85c-28.3,19.75 -10.41,14.63 -40.12,33.25 -19.06,11.94 -14.41,4.62 -23.4,29.16 13.78,2.65 9.38,10.35 42.76,-14.94l70.22 -50.46c22.97,-13.8 22.8,-11.54 21.72,-41.9 27.08,11.29 8.93,21.5 84.09,-25.87 23.78,-14.99 60.81,-34.88 86.54,-42.02 -14,16.86 -107.85,58.71 -132.87,79.22 -9.07,7.43 -3.59,4.21 -10.83,10.89 -25.73,23.75 -33.85,5.8 -69.45,44.61 44.65,-10.97 145.67,-84.75 196.31,-78.58 -15.11,25.48 -72.14,40.86 -83.63,50.52 -27.47,23.1 -65.27,36.1 -91.13,55.22 24.13,0.72 111.63,-46.61 150.94,-55.02 -9.14,6.63 -5.82,6.45 -11.02,13.39 1.58,12.75 -3.15,10.34 -19.61,11.11 1.12,1.09 3.15,2.02 3.89,2.62l-1.18 25.82c29.21,21.27 21.82,4.8 25,1.68l-1.66 16.47 -57.08 26.93c12.66,5.2 10.28,-0.96 16.72,5.95l5.95 60.53c-0.24,0.96 -0.98,2.94 -1.2,3.72 -0.23,0.81 -0.7,2.64 -1.35,3.83 -28.06,5.93 -46.11,10.75 -78.19,12.9 -10.14,2.35 -15.42,2.93 -25.42,5.44 -3.11,0.78 -11.18,3.02 -12.77,3.86 -18.99,10.08 -3.31,-3.19 -13.78,12.48 41.58,9.22 101.48,-28.14 133.44,-24.31 -0.02,24.91 -11.94,26.98 -10.19,54.48 1.24,19.25 11.43,38.57 15.25,57.78 18.87,0 15.83,5.63 15.51,-10.19 -24.72,-92.32 44.27,-148.24 54.55,-221.96 -11.05,-22.19 25.15,-79.07 40.87,-114.62 16.19,-36.63 29.19,-72.27 32.75,-120.46 -46.44,5.84 -49.28,17.16 -62.96,18.2 -18.19,1.38 -7.65,4.18 -17.65,-5.16z"/>
    <path class="fil15" d="M4047.11 5110.74c13.45,29.19 9.87,6.8 41.94,79.84l0.11 7.64 0.39 14c9.33,5.98 8.44,19.41 10.44,31.94 14.17,7.97 2.72,-6.5 5.89,10.88 1.64,8.99 0.86,8.23 -2.27,10.17 0,-41.92 -1.31,-17.09 11.29,-27.04l3 92.87 46.98 6.33 -23.4 -15.72c-11.37,-7.79 -12.09,-6.14 -14.85,-22.36 16.23,-0.86 128.16,39.93 192,42.94l18.75 -4.46c-22.2,2.21 -131.26,-25.86 -160.19,-36.41 -48.99,-17.87 -36.34,-12.22 -41.96,-25.63 14.53,-5.45 125.65,11.3 156.02,11.73l36.69 -2.44c-48.46,10.54 -128.9,-22.88 -180.16,-23.04 11.91,-9.94 -9.18,-3.52 18.77,-8.27l163.98 5.96c-44.22,-18.76 -131.14,-9.58 -183.24,-26.14 12,-22.13 53.3,-16.35 82.21,-18.74 26.43,-2.19 86.38,-3.48 102.32,-15.01 -53.38,2.14 -150.67,5.79 -171.23,-8.14 27.41,-6.89 90.33,-15.23 104.07,-24.91 -23.25,-5.99 -69.91,10.2 -103.57,13.39l-33.78 -4.25c7.67,-10.94 15.4,-13.33 29.96,-19.54 11.59,-4.94 21.81,-9.01 33.24,-14.17 19.06,-8.6 42.75,-20.49 60.26,-30.92l123.91 -53.22 57.08 -26.93c-68.5,9.05 -185.63,80.56 -210.2,71.19 -3.37,-20.09 -2.82,-16.37 15,-26.16 7.04,-3.87 19.32,-8.6 26.74,-9.1 -18.23,6.16 -48.82,19.63 -64.5,27.94 17.31,4.59 10.82,2.28 21.03,16.78 -101.16,39.55 -51.44,22.47 -65.43,14.49 -7.85,-4.48 -0.18,-6.2 -19.96,-1.43 35.17,6.32 12.93,-4.65 17.75,15.11l-32.86 9.77c-0.48,-0.82 -0.41,-2.41 -0.46,-2.81 -0.05,-0.39 -0.35,-2.25 -0.41,-2.72 -0.05,-0.44 -0.25,-2.1 -0.3,-2.57l-0.35 -4.56c-0.29,-11.75 -11.24,1.02 9.3,-15.54l166.56 -88.66c4.22,-2.56 0.95,-1.26 7,-6.25 20.98,-17.32 105.39,-51.55 124.66,-53.19 5.19,-6.94 1.87,-6.77 11.02,-13.39 -39.31,8.41 -126.81,55.74 -150.94,55.02l-7.48 3.94c-37.01,21.37 -26.15,8.72 -38.21,16.12 -6.92,4.24 -3.11,6.28 -17.85,16.57l-70.17 40.56c-22.61,13.47 -37.98,13.55 -44.85,18.08l77.54 -63.47c25.24,-19.66 52.33,-39.55 79.48,-58.96 35.6,-38.81 43.72,-20.86 69.45,-44.61 7.24,-6.68 1.75,-3.46 10.83,-10.89 25.02,-20.51 118.87,-62.35 132.87,-79.22 -25.73,7.14 -62.76,27.03 -86.54,42.02 -75.17,47.37 -57.01,37.16 -84.09,25.87 1.07,30.36 1.25,28.1 -21.72,41.9l-70.22 50.46c-33.38,25.29 -28.98,17.59 -42.76,14.94 8.99,-24.54 4.34,-17.21 23.4,-29.16 29.71,-18.62 11.82,-13.5 40.12,-33.25l20.16 -16.85c0.81,-0.72 1.98,-1.74 2.81,-2.44l23.36 -18.61c0.84,-0.64 2.06,-1.59 2.92,-2.21l48.47 -35.91c12.99,-8.13 18.56,-12 28.96,-18.07 21.91,-12.77 25.87,-5.06 24.53,-28.41 -60.38,27.89 -92.81,50.27 -137.93,87.99 -36.44,30.46 -51.04,38.14 -84.37,73.64 -12.16,12.96 -26.61,20.67 -40.67,32.98 -25.65,22.48 -49.3,55.76 -76.34,72.7z"/>
    <path class="fil16" d="M2320.39 5045.17c-0.39,0.08 -26.18,7.81 -18.26,-3.15 -14.78,13.64 -5.74,6.41 -30.47,10.89 -9.24,1.68 -21.22,3.64 -29.93,5.49 -26.75,5.67 -36.59,8.65 -62.8,9.38 -9.48,9.16 -27.22,11.91 -40.67,15 -15.2,3.49 -26.07,6.26 -41.24,10.51 -27.81,7.8 -54.3,17.84 -79.15,27.88 -7.14,25.31 -1.07,6.07 4.43,14.03 20.68,-0.75 31.19,-1.79 49.66,-4.94 60.94,-10.39 201.73,-13.69 267.33,-9.72 17.84,1.08 39.35,3.35 56.64,3.64 15.75,0.26 11.2,1.12 22.06,-3.48 30.25,-12.83 -25.54,-6.81 27.85,-12.92 2.19,-6.47 -2.55,0.1 11.1,-2.76 14.81,-3.1 13.33,-5.01 29.46,-6.44 -1.46,-2.73 -3.33,-8.96 -5.32,-12.76 -20.16,-4.92 -28.33,-3.58 -44.81,-15.07 27.66,-23.26 265.72,-21.54 295.57,-21.61 103.75,-0.24 198.54,12.22 301.44,20.64 13.42,0.14 26.46,0.59 39.74,0.96 34.37,0.98 -5.36,-1.26 31.6,-4.84l-91.28 -18.15c-19.92,-1.86 -42.64,-4.29 -60.86,-5 -28.71,-1.12 -28.57,-2.19 -55.63,-5.29 -21.44,-2.46 -104.26,1.94 -110.46,-12.09 -12.63,-0.48 -32.96,-2.09 -49.59,-2.34 -33.84,-0.52 -31.27,8.22 -41.74,12.89 -14.87,-18.11 -13.29,-13.97 -41.71,-13.64 -134.74,1.54 -196.3,8.22 -332.94,22.89z"/>
    <path class="fil17" d="M3033.28 5069.78c6.94,4.08 109.23,18.38 128.37,23.46 -1.13,1.5 -2.49,3.18 -3.69,4.25 -1.17,1.04 -2.3,2.78 -3.79,3.93 -1.4,1.09 -2.36,2.26 -3.98,3.3 -12.37,7.92 -25.68,6 -45.31,7.02 -26.86,1.4 -27.34,3.73 -47.17,-9.42 -27.54,14.48 8.15,9.3 -31.21,13.03 -91.48,8.66 -473.2,-15.38 -545.41,-29.54 1.99,3.8 3.86,10.03 5.32,12.76 -16.12,1.43 -14.65,3.34 -29.46,6.44 -13.65,2.86 -8.91,-3.7 -11.1,2.76l2.7 21.12 33.75 2.83c15.27,2.89 72.42,7.11 86.31,7.46 36.36,0.91 58.67,4.96 89.45,5.31 49.76,0.57 132.06,-0.64 179.26,6.38l102.99 -3.54c19.5,-6.54 -0.72,-8.52 24.68,-12.13 36.35,-2.63 62.56,0.76 92.83,-6.68 36.1,-8.87 180.23,-6.24 234.77,-11.82 15.55,-1.59 13.96,-4.01 37.32,-3.64l20.12 -3.12 -1.99 17.45 29.69 -10.36c3.55,-1.14 -3.86,-1.25 11.87,-3.09 7.21,-0.84 12.93,0.01 20.25,0.55 11.01,16.25 -12.86,3.79 10.51,24.38 24.81,-4.34 1.97,-10.24 26.33,-15.1 6.04,-1.2 24.9,3.04 36.74,3.92l11.69 23.85c-1.78,-21.61 -3.85,-10.06 4.08,-24.82 19.33,4.48 16.3,-0.77 14.1,22.5l13.45 -16.41c13.19,8.95 39.2,14.83 56.35,20.34 23.93,7.69 35.94,10.02 60.49,14.6l1.22 22.01c15.59,-4.73 9.28,3.5 14.74,-19.17 -6.1,-2.24 -5.76,-5.34 -10.48,-10.47l-1.36 1.3 -13.96 -3.09c-44.31,-24.25 -125.65,-36.41 -165.77,-66.43l-33.07 -7.92 -81.05 2.49c-45.12,3.6 -50.98,8.6 -75.47,0.77 -36.32,-11.61 -130.91,-17.35 -173.77,-21.35 -36.96,3.58 2.77,5.83 -31.6,4.84 -13.28,-0.38 -26.32,-0.82 -39.74,-0.96z"/>
    <path class="fil18" d="M2127.44 4938.13l-178.7 63.24c1.19,1.57 3.91,0.54 5.13,2.94 1.19,2.34 3.51,2.11 5.17,2.58 13.5,3.82 -2.32,2.56 16.06,3.18l49.37 -5.61c18.42,1.36 10.65,3.24 21.14,4.85 22.07,3.39 82.04,-11.22 108.1,-12.74 0.26,0.63 -0.16,1.23 -0.13,2.03 0.2,5.16 -0,5.44 9.69,6.81 30.62,1.38 16.2,-1.06 44.16,7.42 10.48,-27.33 33.44,-25.08 98.93,-35.48l94.37 -12.59c27.89,1.62 4.56,-3.37 26.28,10.98 28.89,-13.08 -12.97,-14.98 68.24,-18.95 29.87,-1.46 59.52,-2.79 89.43,-2.65 0.76,1.13 1.66,1.66 1.97,3.59 0.3,1.91 1.53,2.79 1.95,3.55l11.35 20.03 23.57 1.22c3.94,-5.47 2.99,-4.98 6.99,-13.37 3.63,-7.63 -0.37,0.77 3.33,-7.43 0.47,-1.05 1.31,-2.98 1.69,-3.85 0.39,-0.88 1,-2.67 1.71,-3.91 45.44,0.45 79.36,1.77 119.73,8.35l-0.71 -20.2c88.33,-6.46 175.34,-15.22 276.42,-12.54l-68.64 -13.02 -168.22 -11.2c-26.13,2.49 -52.36,-1.76 -78.68,0.35 -23.33,1.87 -41.21,6.82 -69.12,8.88l-139.93 11.88c-14.61,3.39 -6.26,6.14 -33.46,7.24 -44.26,1.78 -162.4,5.02 -193.22,12.49l-27.86 13.91c-27.86,-8.67 -12.24,-10.14 -27.28,-12.41l-63.5 1.93c-6.8,-0.49 -13.06,-0.63 -19.76,-2.79 -11.16,-3.59 1.35,19.19 -10.36,-5.33 -1.25,-2.62 -3.97,-1.71 -5.21,-3.36z"/>
    <path class="fil19" d="M2341.16 5599.84c25.26,41.47 152.31,29.45 211.98,29.42 174.02,-0.07 467.3,-11.94 638.49,-61.67l22.41 -10.65c-10.67,-3.7 -7.47,-3 -8.74,-5.99l-0.44 -6.47c-0.02,-1.07 0.33,-1.78 -0.01,-2.56 -30.03,1.12 -72.76,3.83 -92.63,2.93 -86.68,-3.95 -63.39,6.43 -106.82,9.08 -37.63,2.3 -97.3,-1.2 -131.66,6.09 -9.48,35.31 15.33,-22.59 5.26,9.63l-537.84 30.2z"/>
    <path class="fil20" d="M2988.78 5494.51c2.06,3.47 -2.95,8.59 26.63,9l69.02 -7.85c12.87,5.46 -8.77,-10.63 2.77,2.8l2.04 4.6c29.67,-0.04 54.27,-0.03 81.71,-2.74l107.85 2.17c43.98,11.12 58.02,-14.42 92.43,12.09l54.66 -12.44c20.37,-14.01 252.93,-88.52 285.17,-94.35l-5.01 -13.13c-36.63,6.01 -4.31,-0.07 -39.72,-2.48 -18.86,-1.28 -16.07,5.69 -39.22,9.72 -9.56,1.67 -64.41,2.46 -79.16,-17.81l-13.94 -0.97c-25.94,23.41 -485.76,106.52 -545.21,111.38z"/>
    <path class="fil21" d="M1997.29 5259.93c25.42,25.06 24.51,71.11 27.2,109.85 9.08,68.09 -67.81,145.31 -145.54,138.94l48.5 -81.56 -5.04 -5.82c-10.15,21.83 -6.5,4.16 -5.26,27.8 -22.24,-20.43 -2.83,5.13 -11.02,-15.46l1.15 -32.05c2.69,-38 -11.76,-90.35 -50.02,-99.6l6.27 18.76 19.46 42.12c11.38,13.9 23.12,63.42 -13.69,89.12 -31.55,66.37 -183.32,78.74 -267.15,60.75 -98.26,-21.09 -150.63,-61.39 -206.69,-131.96 8.82,-21.38 4.09,-17.44 26.75,-21l-13.22 -8.88c-13.98,9.12 -21.05,12.57 -22.6,35.13 19.26,53.37 39.49,63.17 66.24,81.54 8.17,5.61 9.34,7.7 17.83,13.75 62.74,44.64 138.74,63.95 214.8,78.29l16.61 -5.61c36.07,-3.84 77.75,2.88 121.81,-39.37l18.69 15.57c28.72,18.11 85.15,-6.52 97.19,-9.38 0.48,-0.02 15.81,2.11 16.89,-4.87 2.5,-16.14 11.98,9.36 -7.28,-7.44 -0.91,-0.8 -3.22,-1.91 -4.75,-2.98 26.65,-2.24 11.24,-3.96 37.99,-12.9 -10.85,31.54 -8.11,9.65 -24.97,40.16 2.06,12.91 6.07,12.76 -5.37,7.91 -4.76,8.05 -4.61,7.47 -8.66,13.47 -3.02,4.47 -7.83,11.18 -8.75,12.54 -2.3,13.38 10.04,2.53 -7.68,13.81 0.88,0.62 2.75,-0.21 3.09,0.92l10.55 1.02c7.14,0.54 6.98,1.09 19.11,5.37 -2.34,-32.96 5.55,-40.69 20.09,-59.43 33.13,3.44 17.99,15.25 48.88,16.3 -2.02,-20.96 1.51,-4.15 -5.71,-17.32 -19.82,-36.17 -24.17,-11.39 8.67,-84 10.93,-24.16 32.89,-87.3 32.07,-114.2l-7.15 -39c-13.48,-10.16 -13.02,-13.41 -22.01,-26.94 -9.07,-13.64 -9.13,-10.85 -17.87,-21.1 -12.41,-6.65 -17.44,-19.52 -18.76,-20.98 -17.22,-18.87 0.78,-10.63 -22.98,-8.56 -0.12,21.52 -8.92,1.91 9.15,27.26 11.11,15.58 6.12,0.21 13.14,20.02z"/>
    <path class="fil22" d="M3464.87 5578.52c-12.42,0.43 -5.85,3.54 -7.73,6.08 -34.31,-22.74 -36.46,-4.09 -36.56,-4.04l44.8 31.51c-15.27,12.56 -8.98,0.92 -8.26,14.98 19.57,22.87 58.49,28.28 78.48,51.24l-118.47 -49.19c-5.83,7.52 9.36,6.55 -9.19,11 -16.12,3.87 -30.54,-17 -71.65,-22.72 1.13,1.84 2.38,3.74 3.58,5.4 1.14,1.58 2.08,3.3 3.46,5.11 21.21,27.91 -6.52,-6.1 6.55,8.29 8.54,9.39 -3.17,-0.22 11.94,9.65 10.08,6.59 15.2,8.3 26.28,13.06 22.57,19.95 75.05,37.29 108.64,47.81 72.08,22.58 36.66,10.92 36.52,16.06l-0.38 8.38c2.67,22.93 0.9,12.55 8.38,20.68 20.78,-20.26 -3.62,-7.63 26.22,-8.32 16.56,-6.99 67.48,-102.93 73.58,-116.84 -41.28,1.83 -6.09,-6.5 -41.71,-9.61 19.44,-21.94 13.84,-6.72 10.2,-15.57 -18.77,-0.41 -67.86,-16.75 -78.85,-23.46l-20.99 -23.7c103.66,1.57 79.96,65.57 134.67,10.46 -21.69,-4.2 -23.8,-12.74 -39.41,-13.68 21.09,-4.65 8.96,-5.34 30.54,-8.44 -14.32,-19.22 12.03,22.26 -3.33,-8.1 -5.67,-11.21 0.01,-6.8 -13.25,-11.82l37.89 -10.46 -31.86 -7.22c-6.9,4.71 -5.92,5.15 -25.96,1.61 -28.78,-5.08 -54.46,-11.85 -80.23,10.84 8.61,22.09 24.68,17.54 64.94,35.75 -40.39,-6 -93.24,-29.24 -129.74,-7.77 2.74,20.26 57.4,39.32 71.54,50.9 -25.29,-6.22 -34.91,-16.31 -60.65,-17.85z"/>
    <path class="fil23" d="M2481.07 5085.82c72.21,14.15 453.93,38.2 545.41,29.54 39.36,-3.72 3.67,1.45 31.21,-13.03 19.83,13.15 20.31,10.81 47.17,9.42 19.63,-1.02 32.95,0.9 45.31,-7.02 1.62,-1.04 2.58,-2.21 3.98,-3.3 1.48,-1.15 2.62,-2.89 3.79,-3.93 1.2,-1.07 2.57,-2.75 3.69,-4.25 -19.14,-5.09 -121.43,-19.38 -128.37,-23.46 -102.91,-8.42 -197.69,-20.89 -301.44,-20.64 -29.85,0.07 -267.91,-1.65 -295.57,21.61 16.48,11.5 24.65,10.16 44.81,15.07z"/>
    <path class="fil24" d="M2704.42 4793.29c43.22,-55.02 109.2,-143.92 177.6,-158.79 -18.61,26.4 -96.67,83.68 -109.17,98.57 -9.11,10.86 -10.44,12.42 -21.54,20.78l-43.43 36.78c-0.75,0.65 -2.25,1.86 -3.47,2.66zm-24.96 -54.87l12.13 -12.73c4.69,-6.1 3.82,-6.59 8.04,-13.14 16.44,-25.55 107.81,-112.12 144.47,-128.99 -11.93,23.87 -43.53,50.81 -64.26,66.05 24.63,-0.94 9.43,-3.33 14.62,8.12 16.61,-11.44 27.18,-18.85 44.19,-32 14.52,-11.22 26.71,-22.14 47.06,-30.13 -0.94,1.2 -2.46,1.38 -2.98,3.47 -0.51,2.05 -2.24,2.64 -2.94,3.39 -1.95,2.07 -7.54,7.88 -8.58,8.85l-112.11 102.88c-29.77,31.53 -84.95,88.15 -104.61,134.93 34.09,-8.61 118.69,-106.18 189.34,-155.14 18.44,-12.78 53.61,-37.85 76.08,-42.38 -64.33,44.22 -164.01,124.14 -193.14,198.4l7.69 8.95c36.65,-30.03 180.08,-148.55 203.91,-153.81 14.99,0.08 10.37,0.25 20.77,-5.82 14.44,-8.43 -4.83,4.56 6.03,-4.62 0.83,-0.7 1.95,-1.88 2.7,-2.6 0.73,-0.7 1.81,-1.98 2.47,-2.68 15.31,-16.17 -16.7,-11.3 31.9,-7.83 1.87,0.13 4.25,0.52 6.35,0.22 -19.17,-22.87 -74.99,-61 -92.96,-83.4 -6.92,-8.63 -17.97,-30.3 -24.63,-37.73l-13.14 -30.89c-57.56,40.5 -57.04,33.31 -110.17,88.04l-91.75 107.29 3.51 13.31z"/>
    <path class="fil25" d="M1974.52 5207.37l0.48 5.28c23.75,-2.07 5.76,-10.31 22.98,8.56 1.33,1.46 6.35,14.32 18.76,20.98l2.37 -17.35 171.71 -15.46c6.65,-0.54 8,-0.21 14.93,-1.48 1.6,-0.29 2.9,-0.65 4.41,-1 70.3,-16.26 147.68,-8.3 222.05,-14.09 60.06,-4.68 135.91,-20.61 199.87,-19.74l194.37 -11.37c15.09,-4.57 6.85,1.9 10.87,-10.8 -47.2,-7.02 -129.5,-5.81 -179.26,-6.38 -30.78,-0.35 -53.09,-4.4 -89.45,-5.31 -13.89,-0.35 -71.04,-4.57 -86.31,-7.46 4.2,-0.65 12.05,-1.71 18.22,-0.03 16.22,4.43 8.85,0.68 18.66,9.75 -29.55,0.21 -147.63,7.13 -168.45,16.61 -9.98,4.54 -4.96,8.51 -26.47,6.66 -80.47,-6.93 -253.36,14.34 -344.7,19.04l-5.02 23.6z"/>
    <path class="fil26" d="M2028.74 5544.74c42.11,-6.74 91.15,-35.59 144.12,-45.78 78.28,-15.06 100.58,-6.25 173.76,-2.69 23.22,4.67 26.44,1.76 24.78,24.77 29.38,-5.5 59.35,1.49 98.14,-4.79 32.69,-5.3 48.01,-4.83 94.05,-4.38 -30.43,-14.34 -123.18,-17.22 -145.44,-39.59 -24.59,0.76 -56.59,-10.26 -83.79,-14.24 -63.62,-9.32 -223.77,18.68 -235.87,-45.78 -15.93,-10.72 -14.1,-8.98 -15.34,-29.15 -12.39,-11.62 -12.73,-35.2 -14.86,-54.74l-4.54 0.87c0.82,26.89 -21.14,90.04 -32.07,114.2 -32.84,72.6 -28.5,47.83 -8.67,84 7.22,13.17 3.69,-3.64 5.71,17.32z"/>
    <path class="fil27" d="M4082.9 5288.01c-33.63,62.22 -191.48,43.09 -268.38,44.37 -98.56,1.63 -183.13,26.28 -266.59,51.72 14.75,20.28 69.6,19.48 79.16,17.81 23.15,-4.04 20.37,-11 39.22,-9.72 35.41,2.4 3.09,8.49 39.72,2.48l5.01 13.13c50.52,-10.39 113.17,-17.7 166.39,-21.39 31.11,-2.16 58.72,-4.69 89.36,-5.84 44.41,-1.67 51.12,3.35 86.46,-14.11 26.58,-14.69 51.32,-84.69 46.74,-122.28 -2,-12.53 -1.11,-25.96 -10.44,-31.94 5.88,29.82 8.74,51.54 -6.66,75.78z"/>
    <path class="fil28" d="M4403.21 5254.68c1.86,16.25 -2.75,19.14 -3.83,25.19l0.12 10.81 -71.53 -5.66 -36.69 2.44c9.05,7.29 68.22,19.65 85.6,21.14 -7.45,11.99 -7.04,7.86 -22.91,19.88 -1.49,1.13 1.67,3.95 -16.56,9.3l-18.75 4.46c15.23,10.65 44.81,18.04 67.39,19.53 15.79,1.93 6.35,0.19 16.03,8.57l-9.35 9.15c-0.56,0.58 -1.8,1.74 -2.27,2.27 -15.19,17.3 -2.4,-6.44 -3.72,10.25 -0.04,0.41 -0.13,1.9 -0.15,2.35 -0.03,0.52 -0.2,2.11 -0.22,2.68l-0.13 26.49c0,17.46 14.73,15.53 22.33,53.96l-25.01 0.13c5.25,27.41 -1.1,6.23 14.05,20.54 7.66,7.23 1.82,-1.84 11.33,7.23 22.83,-3.43 -6.5,-6.57 -0.93,14.37l6.2 30.13c0.07,0.49 0.46,1.96 0.54,2.46l1.13 11.13c-9.77,26.98 10.29,-9.34 -6.7,8.55l-8.09 5.43c15.13,2.62 20.51,6.17 31.17,10.83 -15.01,1.98 -9.66,-7.73 -39.56,-12.97 -1.55,29 -9.74,10.39 31.56,36.74 -20.03,-4.92 -6.17,-0.18 -4.12,12.72 1.51,9.48 1.78,5.92 3.54,11.03 11.09,32.2 -1.09,-18.19 3.71,10.75l12.13 45.04c21.83,4.31 28.29,7.43 47.16,-5.93 17.3,-22.07 -64.13,-346.85 -64.46,-367.94 -0.27,-17.48 5.21,-16.24 5.9,-21.07 0.47,-3.32 1.72,-3.97 3.4,-5.15l-12.78 -47.03c0.32,15.82 3.37,10.19 -15.51,10.19z"/>
    <path class="fil29" d="M3760 5152.56c-0.19,9.29 0.35,0.43 -3.28,6.4 -23.91,-5.44 -14.17,-17.98 1.34,-17.21 0.71,2.06 2.07,4.5 1.94,10.81zm-292.03 -60.65c40.12,30.02 121.45,42.18 165.77,66.43l-5.65 -14.52c19.98,2.76 22.04,0.78 19.61,17.61l1.36 -1.3c37.54,-0.44 83.92,10.02 128.67,11.02 48.09,1.07 91.2,-1.66 136.46,-6.62 -1.37,-18.53 -4.41,-6.45 7.61,-18.19l6.85 15.31c57.8,-1.68 42.24,-8.59 83.98,4.96l7.38 2.09c1.19,0.14 2.7,0.11 3.93,0.13 24.53,0.44 15.74,-13.87 65.13,21.74 -32.07,-73.04 -28.49,-50.65 -41.94,-79.84 -76.81,32.96 -362.83,5.34 -427.07,-26.72l-9.82 6.54c-25.01,14.13 -37.04,9.09 -75.6,12.69 -10.67,8.02 -11.5,5.87 -21.39,-2.26 -3.86,-4.34 -6.93,-2.8 -8.8,-11.33 -19.66,1.7 -11.83,5.41 -36.47,2.25z"/>
    <path class="fil30" d="M3459.11 5523.04c-89.76,52.93 -297.69,81.71 -315.55,111.21 38.17,5.73 75.24,30.73 98.82,55.83 14.5,15.44 8.59,15.21 25.55,24.88 -0.97,-16.83 2.28,-8.36 -7.84,-26.37 -4.65,-8.28 -7.89,-10.98 -14.65,-17.17 -12.53,-11.48 -23.25,-16.96 -27.77,-36.8 41.61,16.29 133.01,129.72 204.43,138.35 -16.1,-9.96 -63.93,-39.04 -72.11,-51.32 -25.3,-8.48 -89.6,-80.38 -97.22,-106.55 20.1,3.13 78.47,39.13 87.06,52.68 32.26,4.94 109.03,63.36 161.27,75.17 -34.94,-25.98 -90.47,-43.43 -126.9,-72.48 -17.91,-6.37 -74.46,-40.74 -78.08,-72.28 27.34,-7.98 79.84,6.16 106.61,20.88 1.49,0.82 6.02,3.71 7.3,4.55l7.08 5.48 118.47 49.19c-19.98,-22.96 -58.91,-28.37 -78.48,-51.24 -19.39,-6.59 -30.22,-14.35 -48.5,-24.31 -18.82,-10.26 -27.09,-10.37 -28.8,-33.06 20.17,-14.41 68.2,-11.44 85.06,8.85 25.74,1.54 35.36,11.63 60.65,17.85 -14.13,-11.58 -68.8,-30.64 -71.54,-50.9 36.5,-21.46 89.35,1.77 129.74,7.77 -40.26,-18.21 -56.33,-13.65 -64.94,-35.75 25.77,-22.69 51.45,-15.92 80.23,-10.84 20.04,3.54 19.06,3.1 25.96,-1.61 -39.08,0.79 -37.5,-17.91 -38.89,-20.87 36.38,-7.3 43.91,-5.07 79.56,5.24 37.7,10.9 55.29,5.96 73.19,19.95l16.52 -18.71c-64.09,4.57 -74.63,-8.35 -129.63,-25.68 8.63,-8.36 12.51,-10.26 24.4,-11.73 -31.19,-3.94 -143.7,58.15 -191.02,69.8z"/>
    <path class="fil31" d="M4264.7 5166.73c-13.74,9.68 -76.66,18.02 -104.07,24.91 20.56,13.93 117.85,10.28 171.23,8.14 -15.94,11.52 -75.89,12.82 -102.32,15.01 -28.92,2.39 -70.22,-3.38 -82.21,18.74 52.1,16.56 139.01,7.38 183.24,26.14l-163.98 -5.96c-27.95,4.75 -6.86,-1.67 -18.77,8.27 51.26,0.16 131.7,33.58 180.16,23.04l71.53 5.66 -0.12 -10.81c1.08,-6.06 5.69,-8.94 3.83,-25.19 -3.82,-19.21 -14.02,-38.53 -15.25,-57.78 -1.76,-27.5 10.17,-29.57 10.19,-54.48 -31.97,-3.83 -91.86,33.54 -133.44,24.31z"/>
    <path class="fil32" d="M2017.87 5121.18c-15.5,8.13 -62.76,18.44 -81.18,5.04l3.39 22.07c14.56,14.06 26.64,28.46 34.43,59.09l5.02 -23.6c91.34,-4.7 264.23,-25.98 344.7,-19.04 21.51,1.85 16.48,-2.12 26.47,-6.66 20.82,-9.48 138.9,-16.4 168.45,-16.61 -9.81,-9.07 -2.43,-5.33 -18.66,-9.75 -6.17,-1.68 -14.01,-0.62 -18.22,0.03l-33.75 -2.83 -2.7 -21.12c-53.38,6.11 2.4,0.09 -27.85,12.92 -10.86,4.61 -6.31,3.75 -22.06,3.48 -17.29,-0.29 -38.8,-2.56 -56.64,-3.64 -65.6,-3.97 -206.39,-0.67 -267.33,9.72 -18.46,3.15 -28.98,4.19 -49.66,4.94 -5.5,-7.96 -11.57,11.28 -4.43,-14.03z"/>
    <path class="fil22" d="M2938.37 4705.15c-13.18,11.35 -33.81,25.68 -45.35,38.57 9.13,10.59 5.37,0.09 -2.37,7.22l-5.67 3.86c-4.18,3.15 -3.69,2.33 -9.4,6.96 -10.38,8.42 -18.17,14.43 -27.65,21.62 11.21,10.72 -18.82,22.85 24.14,8.78 4.63,-14.63 0.08,-13.78 14.99,-17.05 13.91,-3.05 7.99,6.41 14.05,8.39l18.73 -10.47c4.28,-30.26 21.13,0.18 38.02,-49.14 27.78,1.57 16.86,6.13 33.87,-0.82 6.25,-2.56 -3.64,-14.06 23.93,-1.53l10.47 7.55c-17.14,5.43 -11.75,4.42 -31.48,8.87 18.21,10.63 19.59,-0.92 0,7.16 1.16,1.59 2.87,1.77 3.59,4.68 0.68,2.76 2.46,3.28 3.38,4.46l21.04 24.11c10.4,-3.75 16.11,-7.52 28.85,-12.01 -53.96,34.34 -28.22,14.29 -39.01,43.69 -14.67,4.12 -3.24,-18.04 -54.8,18.81 -15.98,11.41 -39.5,26.81 -37.93,54.03 29.02,14.43 91.6,-35.35 126.47,-55.02 35.26,-19.88 13.25,-7.02 23.45,-34.03 33.2,3.06 -16.56,15.15 28.76,7.42 28.53,2.62 8.35,3.87 22.54,-13.04l5.04 -6.55c5.64,23.26 7.26,18.11 31.39,15.77l-43.7 -40.88c-3.23,-2.46 -7.76,-6.21 -8.7,-6.94l-56.88 -43.24c-16.08,-12.4 -25.08,-22.78 -39.54,-24.57 -2.09,0.3 -4.47,-0.09 -6.35,-0.22 -48.61,-3.47 -16.59,-8.34 -31.9,7.83 -0.66,0.7 -1.74,1.98 -2.47,2.68 -0.75,0.72 -1.87,1.91 -2.7,2.6 -10.86,9.18 8.41,-3.81 -6.03,4.62 -10.4,6.07 -5.78,5.9 -20.77,5.82z"/>
    <path class="fil33" d="M2127.44 4938.13c1.24,1.65 3.96,0.74 5.21,3.36 11.71,24.51 -0.8,1.73 10.36,5.33 6.69,2.16 12.96,2.3 19.76,2.79l63.5 -1.93c15.04,2.27 -0.58,3.74 27.28,12.41l27.86 -13.91c30.81,-7.48 148.95,-10.71 193.22,-12.49 27.2,-1.09 18.85,-3.85 33.46,-7.24l139.93 -11.88c27.91,-2.06 45.79,-7.01 69.12,-8.88 26.32,-2.11 52.55,2.14 78.68,-0.35 -40,-12.42 -215.91,-13.03 -279.5,-12.65 -32.73,0.2 -34.24,-2.02 -41.99,-12.35 -58.07,7.78 -114.35,8.41 -175.36,19.03 -59.77,10.41 -115.8,29.04 -171.53,38.76z"/>
    <path class="fil34" d="M1869.32 5452.03c-15.17,-18.76 3.62,-3.64 -52.41,-0.23 -20.08,1.22 -47.46,1.01 -67.9,0.79l11.7 -13.13c-39.74,10.13 -11.48,2.91 -22.19,-4.81l-15.71 -7.06c1.25,23.89 2.43,19.72 -8.71,34.61 -1.01,10.18 4.27,5.82 -1.91,13.22 -29.98,-0.46 -26.43,-0.76 -46.55,-10.51l-3.91 11.26c-52.76,8.26 -92.37,-12.23 -134.69,-25.22 -24.17,-12.47 -47.73,-21.54 -71.94,-34.29 -27.06,-14.24 -35.62,-27.25 -59.62,-35.85 56.06,70.57 108.43,110.87 206.69,131.96 83.83,17.99 235.6,5.62 267.15,-60.75z"/>
    <path class="fil35" d="M4439.5 5691.61c-92.18,-30.94 -110.82,-68.25 -143,-75.55 -0.91,-0.2 -2.35,-0.51 -3.35,-0.7 -31.22,-6.02 19.04,-10.41 -31.44,-3.26 9.03,16.66 -0.87,0.94 8.69,11.13 1.16,1.24 4.86,4.57 6.08,5.67l98.12 70.34c26.8,16.22 93.1,50.91 128.17,43.06 20.7,-4.64 9.38,-2.06 17,-9.27 25.17,-28 -44.93,-275.52 -60.27,-333.51 -8.22,-31.07 -25.75,-78.43 -28,-107.99 -1.69,1.18 -2.93,1.83 -3.4,5.15 -0.69,4.83 -6.17,3.59 -5.9,21.07 0.32,21.08 81.76,345.87 64.46,367.94 -18.87,13.36 -25.33,10.24 -47.16,5.93z"/>
    <path class="fil36" d="M1685.29 5559.65c46.89,7.85 61.12,20.25 102.16,36.1 18.15,7.01 35.29,11.79 56,13.81 27.92,2.73 45.65,-6.02 63.35,-5.8 7.24,0.09 85.04,26.04 103.94,30.91 37.01,9.52 80.21,22.28 115.81,24.35l12.91 -7.99c-15.62,-4.52 -49.2,-18.01 -62.87,-24.37 -31.72,-14.75 -28.27,-25.47 -60.09,-13.49l13.29 -12.5c-36.6,5.95 -50.41,3.78 -70.03,-12.78 -12.13,-4.29 -11.97,-4.83 -19.11,-5.37l-10.55 -1.02c-0.34,-1.13 -2.22,-0.3 -3.09,-0.92 17.71,-11.28 5.38,-0.44 7.68,-13.81 -3.88,-14.65 -3.64,-13.66 -15.15,-17.13 14.41,-1.87 20.44,-5.01 32.57,-8.88 11.44,4.84 7.43,5 5.37,-7.91l-17.88 -11.96c-12.04,2.86 -68.46,27.48 -97.19,9.38l-18.69 -15.57c-44.06,42.25 -85.74,35.53 -121.81,39.37l-16.61 5.61z"/>
    <path class="fil37" d="M4053.26 5366.45c-10.05,33.04 -16.54,20.24 -40.57,42.19 25.94,3.94 20.54,0.99 35.24,17.06l76.49 71.01c36.7,26.82 55.73,54.22 110.58,92.8 2.01,-43.41 -11.79,-7.81 -40.74,-47.11 -8.76,-11.89 1.78,-5.76 -22.5,-19.96 -16.52,-9.66 -13.67,-6.54 -24.69,-22.56 -16.72,-24.29 -26.31,-22.8 -46.94,-41.87 -15.33,-14.17 -30.99,-27.6 -37.71,-48.45 9.52,3.9 94.68,80.24 138.62,110.28 20.2,13.81 145.17,95.13 152,92.48 -27.63,-17.95 -164.63,-109.32 -175.87,-127.95 -24.28,-11.99 -41.68,-27.49 -59.15,-44.29 -9.76,-9.39 -35.58,-37.5 -41.34,-52.91 13.53,5.56 71.67,42.41 78.92,51.94l157.66 96.91 38.81 16.37c-63.99,-55.63 -234.82,-131.5 -240.55,-184.34 26.88,-2.44 232.93,111.75 272.04,109.61 -0.06,-0.01 -9.76,-2.68 -13.76,-4.88l-13.89 -9.87c-44.59,-17.91 -84.74,-38.81 -128.59,-58.89 -30.33,-13.88 -112.95,-37.83 -109.4,-72.95l-3 -92.87c-12.6,9.95 -11.29,-14.89 -11.29,27.04 3.13,-1.94 3.91,-1.18 2.27,-10.17 -3.17,-17.37 8.27,-2.91 -5.89,-10.88 4.57,37.59 -20.17,107.6 -46.74,122.28z"/>
    <path class="fil38" d="M2890.26 4998.43c-22.57,17.85 -15.39,12.35 -53.61,13.79 -49.84,1.87 -2.3,12.04 -50.27,13.15 6.2,14.02 89.03,9.63 110.46,12.09 27.06,3.1 26.92,4.17 55.63,5.29 18.22,0.71 40.94,3.14 60.86,5 41.89,3.05 83.27,3.32 118.44,-2.93l13.36 -6.28c6.18,-3.76 30.6,-2.11 48.36,-4.41 24.59,-3.17 31.56,-2.94 60.93,-2.66l-27.28 -14.6 -217.94 -33.07c-12.59,-1.52 -25.76,-2.44 -38.04,-4l-31.91 -9.46 -32.05 2.02c8.47,19.94 5.31,34.27 -16.95,26.08z"/>
    <path class="fil22" d="M2700.3 5720.41c0.1,25.99 23.3,37.35 41.33,50.71l49.61 39.75c18.77,13.86 33.11,23.07 60.59,35.01 15.13,6.57 60.33,20.36 65.11,9.5 4.99,-11.33 29.79,-0.33 8.01,-98.55 -9.06,-40.88 -9.36,-49.49 -34.43,-58.19l-13.91 -2.44c-0.42,-1.12 -2.13,-0.13 -3.18,-0 -18.74,12.58 -15.4,-4.2 -15.43,15.74l-0.02 47.3c-15.98,-5.95 -17.78,-8.48 -36.76,-16.56 1,1.44 3.76,5.05 4.18,6.02l0.64 11.65c2.23,10.72 34.73,31.39 40.12,33.63 -38.24,-11.57 -113.98,-77.46 -140.83,-99.69 10.87,9.44 37.84,47.06 49.19,59.05 16.97,17.93 38.78,35.3 56.41,52.62 -49.11,-21.97 -108.24,-94.8 -131.96,-103.06 12.91,15.43 2.34,2.23 1.34,17.52z"/>
    <path class="fil39" d="M2474.33 4880.34c7.75,10.33 9.26,12.55 41.99,12.35 63.59,-0.38 239.49,0.23 279.5,12.65l168.22 11.2c-17.21,-18.66 -121.6,-22.76 -128.55,-21.42l-66.89 -8.31c-25.62,0.26 -59.38,-3.52 -85.22,-5.34 -13.06,-0.92 -32.68,-3.08 -45.79,-4.66 -13.88,-1.67 -14.37,-2.84 -26.76,-10.58 37.49,-17.86 13.56,-16.89 33.54,-28.35 -7.15,-10.73 10.1,-19.72 -10.74,-5.42 -11.93,4.52 -12.81,7.48 -30.26,13 2.55,-25.64 13.23,-39.67 24.67,-57.18 11.77,-18.02 24.15,-28.55 29.32,-46.14l9.49 3.99 12.6 -7.72 -3.51 -13.31 91.75 -107.29c53.13,-54.73 52.61,-47.53 110.17,-88.04l13.14 30.89 -2.82 -45.18c-84,9.81 -243.11,213.97 -294.6,285.7 -28.98,40.37 -64.46,76.8 -119.26,79.14z"/>
    <path class="fil8" d="M1740.09 5258.99c-13.65,19.43 -23.64,26.62 -49.5,39.31 -19.31,6.22 -42.83,3.33 -53.3,-2.37l-35.46 -27.82c-41.9,0.1 -61.8,1.56 -99.81,8l43.34 29.04c8.29,5.73 13.57,9.41 21.44,15.06 24.11,17.3 15.48,1.61 14.01,29.07 -1.41,13.16 -6.44,-1.7 2.02,8.67 7.47,9.16 -1.7,2.74 9.32,2.68 19.73,-1.51 8.24,-6.04 17.64,1.2l1.21 -18.44 27.6 5.9c-6.02,-20.37 4.21,-11.58 -10.75,-22.41 14.27,-5.04 13.2,2 14.83,2.42 0.38,0.1 1.73,0.51 2.16,0.58 0.5,0.09 2.03,0.29 2.58,0.35l20.95 -0.58c9.6,-0.07 19.1,1.03 26.5,-0.21 0.93,-0.15 2.4,-0.65 3.31,-0.84l165.36 -7.8 -6.27 -18.76c-12.16,-13.69 -16.14,-33 -32.39,-42.1 -11.89,-6.21 -24.11,-10.66 -35.91,-8.29 -9.25,1.85 0.25,2.27 -19.41,5.26 -7.07,1.07 -21.73,1.42 -29.47,2.09z"/>
    <path class="fil40" d="M4352.06 5552.36c14.61,-0.83 11.56,-1.98 25.5,5.56 26.63,14.4 13.64,8.17 15.11,17.42 29.91,5.24 24.55,14.95 39.56,12.97 -10.66,-4.66 -16.04,-8.21 -31.17,-10.83l8.09 -5.43c17,-17.89 -3.06,18.43 6.7,-8.55l-1.13 -11.13c-0.07,-0.51 -0.47,-1.98 -0.54,-2.46l-6.2 -30.13c-5.56,-20.94 23.76,-17.8 0.93,-14.37 -9.5,-9.07 -3.67,0 -11.33,-7.23 -15.15,-14.31 -8.8,6.87 -14.05,-20.54 -39.11,2.13 -245.15,-112.05 -272.04,-109.61 5.72,52.85 176.56,128.72 240.55,184.34z"/>
    <path class="fil41" d="M1679.9 5102.72c-102.2,30.2 -174.98,57.74 -269.21,101.39 -1.13,0.52 -18.04,8.57 -18.06,8.59 -16.72,12.04 -7.61,-4.07 -11.53,15.73l40.98 -15.49c81.91,-25.26 212.3,-108.74 308.13,-47.87l5.65 0.39c30.94,-12.52 61.49,-12.82 102.73,-11.12 20.39,0.84 30.52,5.3 48.39,1.44 23.69,-5.11 23.03,-6.33 53.09,-7.48l-3.39 -22.07 9.88 -24.01c-85.37,1.11 -168.44,19.19 -255.39,19.41 -0.36,-0.99 -0.8,-2.41 -1.08,-2.96l-10.21 -15.94z"/>
    <path class="fil42" d="M3711.04 5407.79c-32.23,5.83 -264.8,80.34 -285.17,94.35l10.59 2.8c-9.83,4.08 -1.26,-0.59 -12.57,5.53 -6.7,3.63 -5.44,3.78 -9.16,6.97l44.37 5.6c47.32,-11.65 159.83,-73.74 191.02,-69.8 124.79,-35.21 224.03,-54.21 362.57,-44.61 24.03,-21.94 30.52,-9.15 40.57,-42.19 -35.35,17.46 -42.05,12.44 -86.46,14.11 -30.64,1.15 -58.25,3.68 -89.36,5.84 -53.23,3.7 -115.87,11.01 -166.39,21.39z"/>
    <path class="fil43" d="M2939.26 4970.34l31.91 9.46c12.28,1.56 25.44,2.48 38.04,4l217.94 33.07c27.02,0.97 35.66,4.5 55.84,0.52 24.67,-4.86 23.14,-8.2 58.83,-10.41l4.24 -19.42c-26.27,-6.29 -58.85,-20.73 -89.02,-27.96 -31.57,-7.56 -63.49,-13.13 -94.26,-20.56 -10.43,9.94 -3.67,5.31 -20.26,10.35 -25.7,7.8 -52.41,-7.31 -71.76,18.87 -0.89,1.2 -0.35,16.91 -5.13,7.93 -0.49,-0.93 -1.58,2.98 -2.69,4.22 -38.51,-24.98 16.72,-19.29 -105.12,-18.3 -8.92,15.69 -0.33,-13.07 0.33,3.09 0.35,8.54 5.27,-6.69 -0.35,3.77l-18.56 1.35z"/>
    <path class="fil44" d="M2028.74 5544.74c0.64,0.95 1.78,2.16 2.2,2.66l8.79 10.82c15.09,23.52 2.91,29.91 -9.94,42.43l-13.29 12.5c31.82,-11.98 28.37,-1.26 60.09,13.49 13.67,6.36 47.25,19.85 62.87,24.37l-12.91 7.99 110.51 16.46c-8.22,-15.64 -2.75,-4.19 -22.02,-15.27 8.58,-1.26 19.79,-2.5 26.93,-6.57 21.7,-12.35 11.56,-11.25 14.44,-19.44 -43.75,26.61 -64.64,28.79 -113.41,10.64 30.56,4.67 41.33,7.67 74,3.22l-17.23 -3.44c-47.9,-7.22 -82.22,-26.01 -122.04,-32.94 19.74,-5.17 37.92,1.49 64.54,1.98 -13.12,-10.22 -40.5,-18.75 -56.37,-21.92l56.86 -2.37 128.39 -1.63c-1.04,-0.75 -166.06,-8.21 -188.25,-10.54 20.42,0.83 58.53,-11.62 81.75,-15.43 15.98,-2.62 31.52,-4.86 46.72,-7.25l36.38 -6.48c1.61,-0.48 3.06,-1.07 4.5,-1.56l-41.2 -0.07 -91.21 5.46c16.49,-14.62 26.75,-14.09 48.71,-19.53 16.07,-3.98 31.77,-7.89 47.38,-11.14 39.11,-8.17 64.83,-7.86 104.31,-11.06 -49.23,-10 -125.43,14.87 -181.35,16.38l8.33 -5.96c1.35,-0.79 2.66,-1.72 4.16,-2.5 49.65,-26.17 145.89,-18.22 193.91,-14.63l1.31 -7.17c-73.18,-3.56 -95.49,-12.36 -173.76,2.69 -52.97,10.19 -102.01,39.04 -144.12,45.78z"/>
    <path class="fil45" d="M2779.84 4649.61c-7.92,18.13 -11.51,9.22 -18.79,29.44l-127.41 153.43c20.84,-14.31 3.58,-5.31 10.74,5.42 -19.98,11.46 3.95,10.49 -33.54,28.35 12.39,7.74 12.89,8.91 26.76,10.58 13.11,1.58 32.73,3.74 45.79,4.66 25.83,1.82 59.6,5.6 85.22,5.34l-16.63 -5.49c24.48,-3.74 7.73,-3.96 7.23,-6.82 -15.76,-8.09 -7.45,-6.35 -26.93,-2.78 1.63,-0.63 6.2,-2.46 6.22,-3.18 0.24,-10.81 11.24,11.51 -4.04,-9.6l-7.69 -8.95c29.13,-74.26 128.81,-154.18 193.14,-198.4 -22.47,4.53 -57.65,29.6 -76.08,42.38 -70.65,48.96 -155.24,146.53 -189.34,155.14 19.66,-46.78 74.85,-103.4 104.61,-134.93l112.11 -102.88c1.04,-0.97 6.63,-6.78 8.58,-8.85 0.7,-0.75 2.43,-1.33 2.94,-3.39 0.52,-2.09 2.04,-2.27 2.98,-3.47 -20.35,7.98 -32.54,18.9 -47.06,30.13 -17,13.15 -27.57,20.56 -44.19,32 -5.19,-11.44 10.01,-9.06 -14.62,-8.12z"/>
    <path class="fil24" d="M3374.22 5670.46c36.43,29.06 91.96,46.5 126.9,72.48 -52.24,-11.81 -129.01,-70.22 -161.27,-75.17l-5.26 8.03c18.51,19.16 105.77,61.15 140.4,86.78l9.61 7.81c-27,-3.58 -43.7,-12.85 -66.39,-24.44 -20.32,-10.39 -45.83,-28.97 -61.9,-35.2 -4.98,10.37 -0.53,4.98 -6.31,10.89 8.18,12.28 56,41.35 72.11,51.32 20.55,-0.8 16.98,0.89 44.6,18.67 -19.11,12.05 -46.19,-14.06 -63.15,14.93l43.06 10.54c46.53,0 19.94,1.07 31.51,12.45 12.2,-7.07 14.81,-3.98 28.17,-15.01 25.35,-20.95 44.73,-43.16 61.18,-71.05 -29.85,0.69 -5.44,-11.94 -26.22,8.32 -7.48,-8.13 -5.72,2.25 -8.38,-20.68l0.38 -8.38c0.13,-5.14 35.56,6.52 -36.52,-16.06 -33.59,-10.52 -86.06,-27.86 -108.64,-47.81 -6.23,9.57 1.31,-0.06 -5.85,6.11 -2.96,2.55 -4.65,5.06 -5.15,3.69 -0.32,-0.88 -1.97,1.1 -2.87,1.78z"/>
    <path class="fil46" d="M3022.65 4778.38l-147.98 91.35 -39.18 25.41c6.94,-1.35 111.34,2.76 128.55,21.42l68.64 13.02c13.48,0.59 33.18,3.54 46.35,5.8 18.94,3.24 37.34,11.27 52.23,-1.86l-23.92 -2.95c24.7,-36.16 65.07,-48.16 108.38,-44.17 -0.24,-23.24 -4.64,-23.75 -13.94,-43.04 -0.95,1.03 -1.82,2.77 -2.18,3.6 -0.33,0.79 -1.55,2.59 -1.89,3.55l-2.16 11c-0.09,0.73 0.23,4.37 0.19,3.67 -0.04,-0.71 0.59,2.5 0.42,3.75 -13.88,5.41 -42.09,13.42 -57.24,11.77 -1.14,-0.12 -3.16,-0.73 -4.09,-0.88 -1.16,-0.19 -6.31,-2.13 -8.01,-2.56 -4.52,16.47 1.24,13.89 -17.44,20.19 -11.56,3.89 -21.16,3.2 -32.9,3.23 12,-39.76 47.37,-31.64 59.68,-63 -27.39,11.66 7.79,11.78 -58.07,38.21 -24.84,9.97 -43.37,18.31 -74.56,17.8 4.09,-42.71 83.91,-89.96 94.91,-92.39 -45.32,7.73 4.44,-4.36 -28.76,-7.42 -10.2,27.01 11.81,14.15 -23.45,34.03 -34.87,19.67 -97.45,69.45 -126.47,55.02 -1.57,-27.22 21.96,-42.61 37.93,-54.03 51.56,-36.85 40.13,-14.69 54.8,-18.81 10.79,-29.4 -14.94,-9.34 39.01,-43.69 -12.74,4.49 -18.45,8.26 -28.85,12.01z"/>
    <path class="fil47" d="M4235 5589.5c-1.23,13.68 -11.92,3.07 10.83,17.65 3.29,2.11 15.03,4.81 15.87,4.95 50.48,-7.15 0.22,-2.76 31.44,3.26 1.01,0.19 2.44,0.5 3.35,0.7 32.18,7.3 50.83,44.61 143,75.55l-12.13 -45.04c-4.8,-28.94 7.38,21.45 -3.71,-10.75 -1.76,-5.11 -2.04,-1.56 -3.54,-11.03 -2.06,-12.9 -15.91,-17.63 4.12,-12.72 -41.3,-26.35 -33.11,-7.74 -31.56,-36.74 -1.46,-9.24 11.52,-3.02 -15.11,-17.42 -13.94,-7.54 -10.89,-6.38 -25.5,-5.56l-38.81 -16.37 -7.85 13.04c21.41,5.83 74.55,49.98 97.75,63.09 -13.6,13.07 21.73,25.65 -30.07,5.25 -10.31,-4.06 -10.07,-8.46 -20.06,-5.07 -6.83,2.65 -131.8,-78.67 -152,-92.48 -43.94,-30.04 -129.11,-106.38 -138.62,-110.28 6.72,20.85 22.38,34.28 37.71,48.45 20.64,19.07 30.23,17.58 46.94,41.87 11.03,16.03 8.17,12.91 24.69,22.56 24.28,14.19 13.74,8.07 22.5,19.96 28.95,39.3 42.75,3.7 40.74,47.11z"/>
    <path class="fil43" d="M1679.9 5102.72l10.21 15.94c0.28,0.56 0.72,1.97 1.08,2.96 86.95,-0.23 170.02,-18.3 255.39,-19.41 12.85,-10.67 16.87,-15.16 33.51,-19.35 18.99,-18.66 26.66,-16.34 45.15,-25.26l14.54 -8.8 -80.55 -1.67c-51.66,-2.58 -17.91,8.83 -47.57,9.28 -31.23,0.47 -7.11,-10.81 -31.26,18.2l-7.01 -16.5c-0.24,-1.86 -1.15,-2.41 -1.84,-3.54 -35.23,1.24 -3.72,1.99 -17.4,-12.13 -33.6,22.41 -132.14,54.23 -174.24,60.28z"/>
    <path class="fil48" d="M1609.79 5361.82c7.16,21.8 2.96,11.17 16.91,26.41l17.94 22.95c26.31,17.3 10.69,21.28 49.97,24.34 -6.98,-45.19 -31.77,-49.54 -44.09,-60.61 -18.08,-16.24 -10.54,-8.35 -17.11,-30.83 33.6,4.73 10.77,-1.81 29.92,11.62 4.45,3.13 11.91,10.21 18.13,14.52 12.21,8.45 25,15.91 40.25,24.52 4.47,-4.63 4.78,-10.75 8.89,-14.98 -18.89,-5.33 -11.97,-6.82 -25.75,-10.71 22.35,-4.4 19.09,5.98 37.63,4.55 20.59,-1.59 32.03,-12.25 94.72,-7.11 24.67,2.02 16.23,0.02 45.83,-3.57l-19.46 -42.12 -165.36 7.8c-0.91,0.19 -2.38,0.69 -3.31,0.84 -7.39,1.24 -16.9,0.14 -26.5,0.21l-20.95 0.58c-0.56,-0.06 -2.08,-0.26 -2.58,-0.35 -0.43,-0.07 -1.78,-0.48 -2.16,-0.58 -1.63,-0.42 -0.56,-7.46 -14.83,-2.42 14.96,10.82 4.73,2.04 10.75,22.41l-27.6 -5.9 -1.21 18.44z"/>
    <path class="fil49" d="M1422.08 5212.93c21.3,5.68 15.11,9.7 33.82,5.2 8.5,-2.04 2.35,-2.76 17.22,-3.01 8.73,-0.15 13.97,0.95 28.59,1.27 24.01,0.52 37.39,-0.34 59.72,-3.99 30.06,-4.91 36.07,-4.56 52.59,12.99 26.36,-58.81 46.62,-38.83 100.87,-26.99l27.53 -0.19c3.06,-21.29 3.31,-21.7 -12.21,-33.15 -95.83,-60.87 -226.22,22.61 -308.13,47.87z"/>
    <path class="fil50" d="M4431.8 5031.09l1.66 -16.47c-3.18,3.12 4.21,19.59 -25,-1.68l1.18 -25.82c-0.74,-0.6 -2.77,-1.53 -3.89,-2.62 16.46,-0.77 21.19,1.64 19.61,-11.11 -19.26,1.64 -103.68,35.87 -124.66,53.19 -6.04,4.99 -2.77,3.69 -7,6.25l-166.56 88.66c-20.54,16.56 -9.58,3.79 -9.3,15.54l0.35 4.56c0.05,0.46 0.25,2.13 0.3,2.57 0.06,0.46 0.35,2.32 0.41,2.72 0.06,0.4 -0.02,1.99 0.46,2.81l32.86 -9.77c-4.81,-19.76 17.42,-8.79 -17.75,-15.11 19.78,-4.77 12.11,-3.05 19.96,1.43 13.98,7.98 -35.74,25.06 65.43,-14.49 -10.21,-14.5 -3.72,-12.19 -21.03,-16.78 15.68,-8.31 46.26,-21.78 64.5,-27.94 -7.41,0.5 -19.69,5.23 -26.74,9.1 -17.82,9.8 -18.37,6.07 -15,26.16 24.58,9.37 141.7,-62.14 210.2,-71.19z"/>
    <path class="fil51" d="M3624.97 5505.04l31.86 7.22 -37.89 10.46c13.26,5.02 7.58,0.61 13.25,11.82 15.36,30.36 -10.99,-11.11 3.33,8.1 -21.59,3.1 -9.45,3.8 -30.54,8.44 15.61,0.93 17.72,9.48 39.41,13.68 -54.71,55.11 -31.01,-8.89 -134.67,-10.46l20.99 23.7c10.99,6.72 60.08,23.05 78.85,23.46 3.64,8.84 9.24,-6.37 -10.2,15.57 35.62,3.11 0.43,11.44 41.71,9.61l74.31 -87.42c23.11,-19.04 19.37,-16.47 23.46,-29.86 -17.9,-14 -35.49,-9.05 -73.19,-19.95 -35.66,-10.31 -43.18,-12.54 -79.56,-5.24 1.39,2.96 -0.2,21.65 38.89,20.87z"/>
    <path class="fil52" d="M3049.43 4853.76c-2.09,22.68 2.95,17.56 -19.44,23.63 1.19,-23.6 -2.98,-17.64 19.44,-23.63zm49.01 -52.49c-11,2.43 -90.81,49.68 -94.91,92.39 31.19,0.51 49.71,-7.83 74.56,-17.8 65.86,-26.43 30.69,-26.55 58.07,-38.21 -12.31,31.36 -47.68,23.24 -59.68,63 11.74,-0.03 21.34,0.67 32.9,-3.23 18.68,-6.29 12.92,-3.72 17.44,-20.19 1.7,0.43 6.85,2.38 8.01,2.56 0.93,0.15 2.94,0.76 4.09,0.88 15.15,1.65 43.35,-6.36 57.24,-11.77 0.17,-1.24 -0.46,-4.46 -0.42,-3.75 0.04,0.7 -0.29,-2.94 -0.19,-3.67l2.16 -11c0.34,-0.96 1.56,-2.76 1.89,-3.55 0.35,-0.83 1.22,-2.57 2.18,-3.6 -4.9,-18.56 -6.39,-16.35 -19.06,-29.22 -0.97,-0.98 -10.33,-10.11 -10.65,-10.35 -10.61,-8.02 -4.86,-6.08 -14.65,-6.31 -24.14,2.35 -25.75,7.5 -31.39,-15.77l-5.04 6.55c-14.19,16.92 5.99,15.66 -22.54,13.04z"/>
    <path class="fil53" d="M1381.1 5228.43l5.15 17.92c13.58,5.24 103.53,27.85 115.78,29.77 38.02,-6.44 57.91,-7.9 99.81,-8l35.46 27.82c10.47,5.71 33.98,8.59 53.3,2.37 -9.18,2 -21.1,5.63 -30.85,2.11 -21.28,-7.67 -10.73,1.53 -15.86,-19.41 1.7,-10.65 7.06,-0.85 -1.94,-8.65 -9.57,-8.29 3.45,-2.85 -8.59,-2.51 -15.87,-6.14 -9.31,21.94 -18.07,-20.07 -1.77,-8.48 0.81,-12.63 -1.25,-24.38 -16.52,-17.55 -22.53,-17.9 -52.59,-12.99 -22.33,3.65 -35.72,4.51 -59.72,3.99 -14.62,-0.31 -19.86,-1.41 -28.59,-1.27 -14.87,0.25 -8.72,0.96 -17.22,3.01 -18.71,4.49 -12.52,0.48 -33.82,-5.2l-40.98 15.49z"/>
    <path class="fil54" d="M2756.96 4962.31c25.83,-7.9 99.07,2.7 130.7,6.19l2.59 29.94c22.26,8.19 25.42,-6.14 16.95,-26.08l32.05 -2.02 18.56 -1.35c5.62,-10.46 0.7,4.76 0.35,-3.77 -0.67,-16.16 -9.26,12.61 -0.33,-3.09 121.84,-1 66.61,-6.69 105.12,18.3 1.11,-1.24 2.19,-5.15 2.69,-4.22 4.78,8.98 4.24,-6.73 5.13,-7.93 19.35,-26.18 46.06,-11.07 71.76,-18.87 16.59,-5.04 9.83,-0.41 20.26,-10.35l-31.54 -5.55c-14.89,13.13 -33.28,5.11 -52.23,1.86 -13.17,-2.26 -32.86,-5.2 -46.35,-5.8 -101.08,-2.68 -188.09,6.07 -276.42,12.54l0.71 20.2z"/>
    <path class="fil22" d="M2142.78 5589.39c6.95,19.48 -7.43,6.47 16.26,15.19l63 7.49c-8.28,0.18 -13.61,1.86 -13.98,2.17 -13.24,11.07 1.37,-2.87 1.2,4.46 -0.52,21.91 -5.51,-8.34 -9.48,25.93l17.23 3.44c-32.67,4.44 -43.44,1.45 -74,-3.22 48.77,18.15 69.66,15.97 113.41,-10.64 6.59,-22.85 33.4,-25.92 50.92,-61.52 2.28,-25.43 -0.84,-3.34 -2.66,-15.01l-0.7 -4.3c0,-0.28 0.17,-1.37 0.19,-1.65l1.94 -18.45c-27.36,0 -74.63,-0.93 -95.05,13.15l41.2 0.07c-1.44,0.48 -2.89,1.07 -4.5,1.56l-36.38 6.48c-15.21,2.39 -30.74,4.63 -46.72,7.25 -23.22,3.81 -61.33,16.26 -81.75,15.43 22.19,2.32 187.21,9.78 188.25,10.54l-128.39 1.63z"/>
    <path class="fil32" d="M3283.7 5081.71c-18.34,-11.16 -14.43,-10.17 -10.11,-31.43 11.03,1.17 15.61,-2.42 19.34,11.49 4.37,16.32 -8.79,17.81 -9.23,19.93zm-138.56 -43.17c4.46,24.5 3.35,15.72 -10.26,22.24l-3.1 -15.96c-35.17,6.25 -76.55,5.98 -118.44,2.93l91.28 18.15c42.85,4 137.45,9.74 173.77,21.35 24.49,7.83 30.35,2.83 75.47,-0.77l81.05 -2.49 -15.23 -13.97c-45.37,-3.33 -110.76,-37.1 -165.24,-38.54 -29.37,-0.29 -36.34,-0.52 -60.93,2.66 -17.76,2.29 -42.18,0.65 -48.36,4.41z"/>
    <path class="fil55" d="M1644.64 5411.19c11.4,16.93 6.94,7.5 9.76,27.44 -0.89,12.05 -3.76,-2.19 2.5,12.74 3.09,7.39 4.35,7.51 8.74,13.54 20.12,9.76 16.57,10.06 46.55,10.51 6.18,-7.4 0.9,-3.04 1.91,-13.22 4.9,-29.13 -1.37,-40.99 -15.72,-61.96l27.45 19.95c18.43,11.36 35.09,5.11 12.69,14.46 10.7,7.71 -17.56,14.94 22.19,4.81l-11.7 13.13c20.44,0.22 47.82,0.44 67.9,-0.79 56.03,-3.41 37.25,-18.53 52.41,0.23 36.81,-25.7 25.07,-75.22 13.69,-89.12 -0.25,46.05 -25.2,55.49 -70.73,57.44 -55.55,2.37 -55.11,-10.32 -90.58,-25.61 -15.25,-8.61 -28.04,-16.07 -40.25,-24.52 -6.22,-4.31 -13.67,-11.39 -18.13,-14.52 -19.15,-13.43 3.68,-6.89 -29.92,-11.62 6.57,22.48 -0.96,14.6 17.11,30.83 12.33,11.07 37.12,15.42 44.09,60.61 -39.28,-3.06 -23.66,-7.04 -49.97,-24.34z"/>
    <path class="fil56" d="M2919.84 4773.04l-6.74 10.92c-17.31,21.63 -56.94,34.63 -63.28,91.06l24.85 -5.28 147.98 -91.35 -21.04 -24.11c-0.92,-1.19 -2.7,-1.71 -3.38,-4.46 -0.72,-2.91 -2.43,-3.09 -3.59,-4.68 19.59,-8.08 18.21,3.46 0,-7.16 19.73,-4.45 14.34,-3.44 31.48,-8.87l-10.47 -7.55c-27.57,-12.53 -17.68,-1.03 -23.93,1.53 -17.01,6.95 -6.09,2.39 -33.87,0.82 -16.89,49.32 -33.75,18.88 -38.02,49.14z"/>
    <path class="fil57" d="M3267.93 5714.96c0.17,8.56 -3.33,7.68 14.02,24.84 48.63,48.12 125.77,99.61 196.19,89.74 -11.56,-11.38 15.02,-12.45 -31.51,-12.45l-43.06 -10.54c16.96,-28.98 44.04,-2.87 63.15,-14.93 -27.62,-17.77 -24.05,-19.46 -44.6,-18.67 -71.42,-8.63 -162.82,-122.06 -204.43,-138.35 4.52,19.85 15.24,25.33 27.77,36.8 6.75,6.19 10,8.89 14.65,17.17 10.11,18.01 6.87,9.55 7.84,26.37z"/>
    <path class="fil54" d="M1948.75 5001.37c-10.04,11.94 -78.56,35.76 -94.6,41.07 13.68,14.12 -17.83,13.37 17.4,12.13 0.69,1.14 1.59,1.68 1.84,3.54l7.01 16.5c24.14,-29.01 0.03,-17.73 31.26,-18.2 29.65,-0.45 -4.09,-11.86 47.57,-9.28l80.55 1.67 46.8 -5.54c0.83,0.88 2.06,2.2 2.93,3.12 0.79,0.84 1.85,2.12 2.6,2.91 5.79,6.11 2,4.4 9.05,8.83 15.68,-30.34 -17.98,-19.43 19.69,-35.11 20.33,-8.46 26.32,-2.42 42.43,-17.62 -9.7,-1.37 -9.5,-1.65 -9.69,-6.81 -0.03,-0.8 0.39,-1.4 0.13,-2.03 -26.06,1.52 -86.02,16.14 -108.1,12.74 -10.49,-1.61 -2.72,-3.49 -21.14,-4.85l-49.37 5.61c-18.37,-0.62 -2.56,0.64 -16.06,-3.18 -1.66,-0.47 -3.98,-0.24 -5.17,-2.58 -1.22,-2.39 -3.94,-1.37 -5.13,-2.94z"/>
    <path class="fil58" d="M4355.91 5462.89l13.89 9.87c4,2.2 13.7,4.87 13.76,4.88l25.01 -0.13c-7.6,-38.43 -22.32,-36.5 -22.33,-53.96l0.13 -26.49c0.02,-0.57 0.19,-2.16 0.22,-2.68 0.03,-0.46 0.12,-1.94 0.15,-2.35 1.31,-16.69 -11.48,7.05 3.72,-10.25 0.47,-0.54 1.71,-1.69 2.27,-2.27l9.35 -9.15c-9.69,-8.38 -0.24,-6.64 -16.03,-8.57l9.09 15.11c-107.69,-1.99 -199.62,-44.63 -230.24,-39.5 7.47,16.78 -2.85,4.02 10.96,15.11 7.38,5.93 6.71,3.83 15.02,7.17 13.71,5.5 12.3,5.46 19.56,9.55l159.13 75.92c22.33,16.77 5.17,1.84 17.82,19.79l-31.48 -2.02z"/>
    <path class="fil59" d="M4263.88 4987.85c-27.14,19.42 -54.23,39.3 -79.48,58.96l-77.54 63.47c6.87,-4.54 22.24,-4.61 44.85,-18.08l70.17 -40.56c14.75,-10.29 10.93,-12.32 17.85,-16.57 12.06,-7.39 1.2,5.25 38.21,-16.12l7.48 -3.94c25.86,-19.12 63.66,-32.13 91.13,-55.22 11.49,-9.67 68.52,-25.05 83.63,-50.52 -50.64,-6.17 -151.67,67.61 -196.31,78.58z"/>
    <path class="fil60" d="M3227.15 5016.87l27.28 14.6c54.48,1.44 119.88,35.22 165.24,38.54 21.15,-7.98 17.83,-4.23 41.7,-7.08 14.74,-1.76 22.15,-5.61 36.26,-8l-73.2 -27.5 13.41 -10.29c-20.88,0.81 -66.78,-22.4 -91.77,-29.58l-4.24 19.42c-35.69,2.21 -34.16,5.55 -58.83,10.41 -20.18,3.97 -28.83,0.44 -55.84,-0.52z"/>
    <path class="fil61" d="M4177.15 5484.35c11.24,18.63 148.24,110 175.87,127.95 9.98,-3.39 9.75,1.02 20.06,5.07 51.8,20.4 16.47,7.81 30.07,-5.25 -23.2,-13.12 -76.35,-57.27 -97.75,-63.09l7.85 -13.04 -157.66 -96.91c-8.61,11.23 -5.9,-1.47 -0.68,11.2 0.72,1.75 5.09,7.07 6.44,9.12 5.99,9.1 8.88,13.74 15.8,24.95z"/>
    <path class="fil15" d="M2734.46 4858.96c15.28,21.11 4.28,-1.2 4.04,9.6 -0.01,0.71 -4.58,2.55 -6.22,3.18 19.48,-3.57 11.17,-5.31 26.93,2.78 0.5,2.85 17.25,3.08 -7.23,6.82l16.63 5.49 66.89 8.31 39.18 -25.41 -24.85 5.28c6.34,-56.43 45.97,-69.43 63.28,-91.06l6.74 -10.92 -18.73 10.47c-6.06,-1.98 -0.15,-11.44 -14.05,-8.39 -14.91,3.27 -10.37,2.42 -14.99,17.05l5.03 8.8c-23.89,15.28 -59.78,48.59 -89.16,54.32 3.91,-35.52 73.66,-89.26 105.09,-111.56 11.54,-12.89 32.17,-27.23 45.35,-38.57 -23.83,5.26 -167.26,123.78 -203.91,153.81z"/>
    <path class="fil30" d="M2657.33 5686.58c18.92,10.58 6.26,2.16 20.52,16.18 12.73,12.52 7.11,9.37 22.46,17.65 1,-15.29 11.56,-2.09 -1.34,-17.52 23.72,8.26 82.85,81.08 131.96,103.06 -17.64,-17.32 -39.44,-34.69 -56.41,-52.62 -11.35,-11.99 -38.31,-49.6 -49.19,-59.05 26.85,22.23 102.59,88.11 140.83,99.69 -5.39,-2.24 -37.89,-22.91 -40.12,-33.63 -25.9,-11.05 -64.49,-51.97 -77.76,-73.98 17.85,8.83 29.77,19.64 47.88,27.18l-21.74 -22.81c17.97,-11.41 3.6,-0.13 18.76,-3.84l23.34 -4.26c15.5,-2.33 1.75,-10.4 27.65,-6.02l0.26 -4.75c-43.46,-8.11 -188.14,1.97 -241.13,4.49 20.48,1.68 46.46,-6.36 54.04,10.25z"/>
    <path class="fil22" d="M4250.81 5111.24c-17.51,10.43 -41.2,22.32 -60.26,30.92 -11.43,5.16 -21.65,9.23 -33.24,14.17 -14.56,6.2 -22.3,8.6 -29.96,19.54l33.78 4.25c33.65,-3.19 80.32,-19.38 103.57,-13.39 10.46,-15.67 -5.21,-2.4 13.78,-12.48 1.59,-0.84 9.66,-3.08 12.77,-3.86 10,-2.51 15.28,-3.09 25.42,-5.44 -4.22,-0.46 1.12,2.16 -4.74,-2.92l-10.72 -11.43c29.44,-4.15 38.96,-11.3 65.42,-21.98 -25.65,-18.65 -84.61,0.18 -110.6,13.66 -6.43,-4.22 -4.99,10.31 -5.2,-11.04z"/>
    <path class="fil62" d="M4337.4 5337.77c18.23,-5.35 15.07,-8.17 16.56,-9.3 15.87,-12.02 15.46,-7.89 22.91,-19.88 -17.39,-1.49 -76.55,-13.85 -85.6,-21.14 -30.37,-0.43 -141.49,-17.18 -156.02,-11.73 5.62,13.42 -7.03,7.76 41.96,25.63 28.92,10.55 137.98,38.62 160.19,36.41z"/>
    <path class="fil63" d="M1953 5392.85l-8.43 9.81c-18.55,20.93 -7.18,-2.62 -17.11,24.5l-48.5 81.56c77.72,6.37 154.62,-70.85 145.54,-138.94l-9.44 0c-3.99,34.8 -25.22,64.93 -64.25,64.95l2.19 -41.88z"/>
    <path class="fil64" d="M1926.55 5304.04l29.21 61.67 4.96 -20.7c13.97,0.65 18.51,2.27 26.31,3.03 1.48,0.14 16.01,0.92 26.09,1.46l1.94 20.28 9.44 0c-2.69,-38.74 -1.78,-84.8 -27.2,-109.85 -11.09,-8.87 -22.22,-17.61 -32.25,-22.18 -9.46,-4.31 -6.46,-5.32 -21.64,-5.61 -8.25,-0.16 -7.41,0.8 -12.8,2.01l-6.96 3.28c16.11,9.44 48.91,33.71 52.96,54.85l-27.98 5.02c-0.44,0.03 -1.86,0.08 -2.3,0.09 -0.43,0.01 -1.88,-0.07 -2.31,-0.08 -11.39,-0.24 -18.21,-3.95 -17.48,6.75z"/>
    <path class="fil65" d="M1721.7 5394.74c35.47,15.29 35.03,27.98 90.58,25.61 45.53,-1.94 70.48,-11.39 70.73,-57.44 -29.59,3.59 -21.15,5.59 -45.83,3.57 -62.69,-5.14 -74.13,5.52 -94.72,7.11 -18.54,1.43 -15.28,-8.95 -37.63,-4.55 13.78,3.89 6.86,5.38 25.75,10.71 -4.1,4.22 -4.41,10.34 -8.89,14.98z"/>
    <path class="fil17" d="M1814.96 5212.68c15.01,21.81 16.13,32.61 40.37,42.78 4.67,-24.85 16.43,-10.81 31.3,-10.33 23.4,0.77 7.69,-4.78 37.02,-7.71l6.96 -3.28c5.39,-1.21 4.55,-2.17 12.8,-2.01 15.18,0.29 12.18,1.3 21.64,5.61 10.03,4.57 21.17,13.31 32.25,22.18 -7.02,-19.81 -2.04,-4.44 -13.14,-20.02 -18.07,-25.35 -9.27,-5.74 -9.15,-27.26 -60.67,-4.76 -58.97,-24.37 -96.06,-28.59l-40.76 0.06c-4.46,4.72 -22.07,27.36 -23.23,28.56z"/>
    <path class="fil59" d="M4355.91 5462.89l31.48 2.02c-12.65,-17.95 4.51,-3.02 -17.82,-19.79l-159.13 -75.92c-7.26,-4.08 -5.85,-4.04 -19.56,-9.55 -8.31,-3.34 -7.64,-1.24 -15.02,-7.17 -13.81,-11.09 -3.49,1.67 -10.96,-15.11l-46.98 -6.33c-3.55,35.12 79.07,59.07 109.4,72.95 43.85,20.08 84,40.98 128.59,58.89z"/>
    <path class="fil66" d="M2211.07 5546.44c20.42,-14.08 67.69,-13.15 95.05,-13.15l-1.94 18.45c-0.03,0.28 -0.19,1.37 -0.19,1.65l0.7 4.3c1.82,11.67 4.94,-10.42 2.66,15.01 10.93,-20.02 42.51,-51.02 37.97,-69.24 -48.02,-3.59 -144.26,-11.54 -193.91,14.63 -1.5,0.79 -2.81,1.71 -4.16,2.5l-8.33 5.96c55.92,-1.51 132.11,-26.37 181.35,-16.38 -39.48,3.2 -65.2,2.9 -104.31,11.06 -15.61,3.26 -31.31,7.16 -47.38,11.14 -21.96,5.44 -32.22,4.91 -48.71,19.53l91.21 -5.46z"/>
    <path class="fil67" d="M1735.87 5165.45c19.6,21.48 34,16.02 53.42,37.87 15.46,17.4 -4.19,11.91 17.53,14.59l4.89 -15.61c-10.49,-13.37 -19.6,-22.24 -22.96,-44.4 25.8,-0.96 71.71,6.3 90.2,26.16 37.09,4.22 35.39,23.83 96.06,28.59l-0.48 -5.28c-7.79,-30.62 -19.88,-45.03 -34.43,-59.09 -30.06,1.15 -29.4,2.37 -53.09,7.48 -17.87,3.86 -28,-0.59 -48.39,-1.44 -41.24,-1.7 -71.79,-1.4 -102.73,11.12z"/>
    <path class="fil36" d="M1425.54 5368.36c9.58,15.94 19.03,14.52 45.87,25.13 15.23,6.02 0.01,-2.11 10.84,4.09 45.85,26.21 22.5,4.18 63.72,25.26 35.58,4.96 67.44,13.33 108.43,15.8 -2.82,-19.95 1.64,-10.51 -9.76,-27.44l-17.94 -22.95c-13.95,-15.24 -9.75,-4.61 -16.91,-26.41 -9.39,-7.24 2.09,-2.71 -17.64,-1.2 12.46,13.66 12.15,11.99 18.39,25.48 -31.9,13.59 -68.5,7.75 -95.53,1.22 -59.69,-14.41 -6.28,-8.18 -89.47,-18.96z"/>
    <path class="fil38" d="M1980.09 5082.86c-16.64,4.19 -20.66,8.68 -33.51,19.35l-9.88 24.01c18.41,13.4 65.68,3.09 81.18,-5.04 24.85,-10.04 51.33,-20.08 79.15,-27.88 15.17,-4.26 26.04,-7.02 41.24,-10.51 13.45,-3.09 31.19,-5.84 40.67,-15 -35.57,-2.35 -69.22,6.31 -104.02,7.25 -71.69,1.93 -63.22,2.74 -78.89,18.61l-10.25 -7.31c-0.57,-0.39 -2.51,-0.42 -2.93,-1.86 -0.39,-1.33 -1.84,-1.07 -2.76,-1.61z"/>
    <path class="fil68" d="M3521.29 4991.54c26.25,-1.65 3.81,-1.98 13.33,7.14l-32.98 12.57c-0.92,0.55 -2.28,1.26 -3.17,1.85l-15.9 16.69c29.63,0.8 36.36,-6.3 61,-11.57l-6.98 4.66c-0.95,0.74 -5.52,3.89 -6.75,5.01 -12.71,11.54 -2.58,-1.83 -11.71,13.89l53.83 -10.5c-8.07,2.62 -5.84,0.3 -12.1,4.83l-15.19 17.23c36.98,-8.88 68.42,-13.69 86.34,-40.07 -7.07,-20.4 2.47,-8.65 -18.02,-20.38 -8.15,-4.67 -19.07,-8.19 -27.48,-9.52 -22.93,-3.62 -47.82,-3.93 -64.2,8.19z"/>
    <path class="fil59" d="M4164.89 5337.37c30.62,-5.13 122.54,37.51 230.24,39.5l-9.09 -15.11c-22.58,-1.49 -52.16,-8.87 -67.39,-19.53 -63.84,-3.02 -175.77,-43.8 -192,-42.94 2.75,16.22 3.48,14.57 14.85,22.36l23.4 15.72z"/>
    <path class="fil69" d="M4250.81 5111.24c0.21,21.35 -1.23,6.81 5.2,11.04 25.99,-13.48 84.96,-32.31 110.6,-13.66 -26.46,10.69 -35.98,17.83 -65.42,21.98l10.72 11.43c5.87,5.08 0.52,2.46 4.74,2.92 32.07,-2.15 50.12,-6.98 78.19,-12.9 0.65,-1.19 1.12,-3.02 1.35,-3.83 0.22,-0.78 0.96,-2.77 1.2,-3.72l-5.95 -60.53c-6.45,-6.92 -4.06,-0.75 -16.72,-5.95l-123.91 53.22z"/>
    <path class="fil24" d="M2826.03 5760.34l-0.64 -11.65c-0.41,-0.97 -3.18,-4.58 -4.18,-6.02 18.98,8.08 20.79,10.6 36.76,16.56l0.02 -47.3c0.04,-19.94 -3.31,-3.16 15.43,-15.74l-29.28 -19.59c-25.9,-4.38 -12.15,3.69 -27.65,6.02l-23.34 4.26c-15.17,3.72 -0.79,-7.57 -18.76,3.84l21.74 22.81c-18.11,-7.54 -30.03,-18.35 -47.88,-27.18 13.27,22.02 51.86,62.93 77.76,73.98z"/>
    <path class="fil70" d="M1614.03 5225.4c2.07,11.76 -0.52,15.9 1.25,24.38 8.76,42 2.19,13.93 18.07,20.07 -23.75,-111.18 111.22,-69.67 82.41,-7.85 -20.31,23.24 -36.24,31.08 -71.87,19.01 5.13,20.94 -5.42,11.74 15.86,19.41 9.74,3.52 21.67,-0.12 30.85,-2.11 25.86,-12.69 35.85,-19.88 49.5,-39.31l12.96 -30.57c-17.32,-11.99 -24.59,-14.98 -38.15,-30.02 -54.26,-11.83 -74.52,-31.82 -100.87,26.99z"/>
    <path class="fil71" d="M3419.67 5070.02l15.23 13.97 33.07 7.92c24.64,3.16 16.81,-0.56 36.47,-2.25 1.86,8.54 4.94,7 8.8,11.33l4.65 -15.81c18.67,8.83 12.89,2.28 16.74,18.07 38.57,-3.59 50.59,1.44 75.6,-12.69l9.82 -6.54 -67.07 -16.86c-27.71,2.68 -29.32,-6.8 -55.34,-12.22 -14.11,2.39 -21.53,6.24 -36.26,8 -23.87,2.85 -20.55,-0.9 -41.7,7.08z"/>
    <path class="fil72" d="M1824.89 5259.93c16.25,9.1 20.22,28.41 32.39,42.1 38.26,9.25 52.7,61.6 50.02,99.6l-1.15 32.05c8.2,20.59 -11.22,-4.97 11.02,15.46 -1.24,-23.63 -4.9,-5.96 5.26,-27.8l-7.73 -82.92c-3.37,-15.14 -4.44,-8.57 -9.39,-25.91l10.26 -8.47c-15.87,-14.15 -48.52,-30.93 -60.24,-48.58 -24.24,-10.17 -25.36,-20.96 -40.37,-42.78l-8.14 5.23c-3.78,27.5 -6.04,4.98 6.21,24.81 3.38,5.46 8.35,11.68 11.86,17.22z"/>
    <path class="fil37" d="M3437.83 5017.15l-13.41 10.29 73.2 27.5c26.02,5.42 27.63,14.91 55.34,12.22 6,-10.76 63.23,-27.45 77.42,-33.17l0.61 -20.73c-17.92,26.39 -49.36,31.2 -86.34,40.07l15.19 -17.23c6.26,-4.52 4.04,-2.2 12.1,-4.83l-53.83 10.5c9.13,-15.72 -1,-2.35 11.71,-13.89 1.23,-1.12 5.8,-4.28 6.75,-5.01l6.98 -4.66c-24.64,5.28 -31.37,12.37 -61,11.57l15.9 -16.69c0.89,-0.59 2.25,-1.3 3.17,-1.85l32.98 -12.57c-9.51,-9.11 12.92,-8.79 -13.33,-7.14 -33.1,7.74 -41.05,21.48 -83.46,25.6z"/>
    <path class="fil73" d="M1959.76 5587.87c19.62,16.56 33.43,18.74 70.03,12.78 12.84,-12.52 25.03,-18.92 9.94,-42.43l-8.79 -10.82c-0.41,-0.5 -1.56,-1.7 -2.2,-2.66 -30.89,-1.05 -15.76,-12.86 -48.88,-16.3 -14.55,18.74 -22.44,26.46 -20.09,59.43z"/>
    <path class="fil8" d="M1855.32 5255.46c11.72,17.65 44.37,34.43 60.24,48.58l10.99 0c-0.73,-10.7 6.09,-6.99 17.48,-6.75 0.43,0.01 1.87,0.09 2.31,0.08 0.43,-0.01 1.85,-0.06 2.3,-0.09l27.98 -5.02c-4.05,-21.13 -36.85,-45.41 -52.96,-54.85 -29.33,2.93 -13.62,8.48 -37.02,7.71 -14.87,-0.49 -26.62,-14.53 -31.3,10.33z"/>
    <path class="fil74" d="M1527.04 5450.95c42.32,12.98 81.93,33.47 134.69,25.22l3.91 -11.26c-4.4,-6.03 -5.65,-6.15 -8.74,-13.54 -6.26,-14.93 -3.39,-0.69 -2.5,-12.74 -40.99,-2.46 -72.85,-10.84 -108.43,-15.8 -3.35,4.91 1.67,7.35 -2.22,11.3l-16.7 16.81z"/>
    <path class="fil75" d="M1676.69 5243.16c5.22,-9.31 3.08,6.36 4.85,-14.46 1.72,-20.25 -0.71,-5.14 -2.69,-7.61 33.67,1.65 33.02,51.94 -3.32,50.16 -24.24,-1.19 -25.93,-18.33 -19.53,-41.78 10.31,19.85 -0.89,12.04 20.68,13.69zm-43.34 26.69c12.04,-0.33 -0.98,-5.78 8.59,2.51 9.01,7.8 3.65,-2 1.94,8.65 35.63,12.07 51.56,4.23 71.87,-19.01 28.81,-61.83 -106.16,-103.33 -82.41,7.85z"/>
    <path class="fil21" d="M1580.81 5349.28c1.47,-27.45 10.09,-11.77 -14.01,-29.07 -7.86,-5.64 -13.15,-9.33 -21.44,-15.06l-43.34 -29.04c-12.25,-1.91 -102.2,-24.52 -115.78,-29.77l-5.15 -17.92c-13.67,5.19 -9.26,-21.49 -10.54,14.88 -0.22,6.29 1.37,9.82 5,15.53 11.38,17.89 28.01,16.73 28.19,16.77 18.26,4.63 39.28,8.76 61.78,10.76 32.74,2.91 39.85,11.29 66.33,28.56l48.96 34.36z"/>
    <path class="fil76" d="M1955.76 5365.71l-2.76 27.14 -2.19 41.88c39.04,-0.02 60.26,-30.15 64.25,-64.95l-1.94 -20.28c-10.07,-0.54 -24.61,-1.32 -26.09,-1.46 -7.8,-0.76 -12.34,-2.39 -26.31,-3.03l-4.96 20.7z"/>
    <path class="fil53" d="M1714.9 5198.41c13.56,15.04 20.83,18.03 38.15,30.02l-12.96 30.57c7.74,-0.67 22.39,-1.02 29.47,-2.09 19.66,-2.99 10.17,-3.41 19.41,-5.26 11.8,-2.37 24.02,2.08 35.91,8.29 -3.51,-5.54 -8.48,-11.76 -11.86,-17.22 -12.26,-19.83 -9.99,2.7 -6.21,-24.81 -21.72,-2.68 -2.07,2.81 -17.53,-14.59 -19.42,-21.85 -33.81,-16.39 -53.42,-37.87l-5.65 -0.39c15.52,11.44 15.27,11.86 12.21,33.15l-27.53 0.19z"/>
    <path class="fil6" d="M1395.48 5380.81c24,8.6 32.56,21.61 59.62,35.85 24.21,12.74 47.78,21.81 71.94,34.29l16.7 -16.81c3.89,-3.96 -1.13,-6.39 2.22,-11.3 -41.22,-21.07 -17.87,0.96 -63.72,-25.26 -10.83,-6.19 4.39,1.93 -10.84,-4.09 -26.84,-10.61 -36.28,-9.2 -45.87,-25.13 6.8,-23.15 1.6,-7.64 -3.31,-8.54 -22.66,3.56 -17.93,-0.38 -26.75,21z"/>
    <path class="fil77" d="M4466.28 4800.48c10,9.33 -0.53,6.54 17.65,5.16 13.68,-1.04 16.52,-12.36 62.96,-18.2 -3.56,48.19 -16.56,83.84 -32.75,120.46 -15.72,35.56 -51.92,92.43 -40.87,114.62l34.44 -67.43c13.67,-39.97 66.67,-128.28 50.95,-171.11 -35.63,-13.83 -60.1,10 -92.39,16.5z"/>
    <path class="fil28" d="M2666.85 4746.14l-9.49 -3.99c-5.17,17.59 -17.55,28.12 -29.32,46.14 -11.44,17.52 -22.12,31.54 -24.67,57.18 17.44,-5.52 18.33,-8.47 30.26,-13l127.41 -153.43c-14.11,10.06 -45.63,38.44 -61.63,54.5 -19.22,19.28 -35.91,37.04 -54.42,55.53 7.61,-9.58 18.79,-29.51 21.85,-42.93z"/>
    <path class="fil69" d="M3374.22 5670.46c0.9,-0.68 2.55,-2.66 2.87,-1.78 0.5,1.36 2.19,-1.15 5.15,-3.69 7.16,-6.16 -0.38,3.46 5.85,-6.11 -11.08,-4.76 -16.2,-6.47 -26.28,-13.06 -15.11,-9.87 -3.41,-0.26 -11.94,-9.65 -13.07,-14.39 14.66,19.62 -6.55,-8.29 -1.38,-1.81 -2.32,-3.53 -3.46,-5.11 -1.2,-1.66 -2.45,-3.56 -3.58,-5.4 41.1,5.72 55.53,26.59 71.65,22.72 18.56,-4.45 3.37,-3.48 9.19,-11l-7.08 -5.48c-1.27,-0.84 -5.8,-3.73 -7.3,-4.55 -26.77,-14.72 -79.26,-28.86 -106.61,-20.88 3.63,31.54 60.17,65.91 78.08,72.28z"/>
    <path class="fil78" d="M2679.46 4738.43l-12.6 7.72c-3.07,13.42 -14.24,33.35 -21.85,42.93 18.52,-18.49 35.2,-36.24 54.42,-55.53 16,-16.05 47.52,-44.43 61.63,-54.5 7.28,-20.22 10.87,-11.31 18.79,-29.44 20.73,-15.23 52.33,-42.17 64.26,-66.05 -36.66,16.87 -128.03,103.44 -144.47,128.99 -4.22,6.55 -3.35,7.04 -8.04,13.14l-12.13 12.73z"/>
    <path class="fil29" d="M1922.42 5421.35l5.04 5.82c9.93,-27.13 -1.44,-3.58 17.11,-24.5l8.43 -9.81 2.76 -27.14 -29.21 -61.67 -10.99 0 -10.26 8.47c4.95,17.33 6.02,10.77 9.39,25.91l7.73 82.92z"/>
    <path class="fil49" d="M2704.42 4793.29c1.22,-0.8 2.72,-2.02 3.47,-2.66l43.43 -36.78c11.1,-8.35 12.43,-9.91 21.54,-20.78 12.49,-14.9 90.56,-72.18 109.17,-98.57 -68.4,14.87 -134.37,103.77 -177.6,158.79z"/>
    <path class="fil69" d="M2199.78 5644.63c3.97,-34.28 8.96,-4.03 9.48,-25.93 0.17,-7.32 -14.44,6.62 -1.2,-4.46 0.37,-0.31 5.7,-1.98 13.98,-2.17l-63 -7.49c-23.69,-8.72 -9.31,4.29 -16.26,-15.19l-56.86 2.37c15.87,3.17 43.24,11.7 56.37,21.92 -26.61,-0.49 -44.8,-7.15 -64.54,-1.98 39.81,6.93 74.14,25.71 122.04,32.94z"/>
    <path class="fil50" d="M3457.11 5627.05c-0.72,-14.06 -7,-2.41 8.26,-14.98l-44.8 -31.51c0.1,-0.05 2.25,-18.7 36.56,4.04 1.89,-2.54 -4.69,-5.65 7.73,-6.08 -16.85,-20.3 -64.89,-23.26 -85.06,-8.85 1.71,22.69 9.97,22.8 28.8,33.06 18.28,9.97 29.12,17.72 48.5,24.31z"/>
    <path class="fil28" d="M3350 5721.65c5.78,-5.91 1.33,-0.52 6.31,-10.89 -19.17,-18.35 -52.78,-34.62 -63.34,-56.56 18.87,8.67 23.06,11.05 41.62,21.61l5.26 -8.03c-8.59,-13.56 -66.96,-49.56 -87.06,-52.68 7.62,26.17 71.92,98.07 97.22,106.55z"/>
    <path class="fil78" d="M3356.31 5710.76c16.07,6.23 41.58,24.82 61.9,35.2 22.69,11.6 39.39,20.86 66.39,24.44l-9.61 -7.81c-34.63,-25.63 -121.89,-67.62 -140.4,-86.78 -18.56,-10.56 -22.74,-12.94 -41.62,-21.61 10.57,21.93 44.17,38.21 63.34,56.56z"/>
    <path class="fil31" d="M2872.07 4792.17c-42.96,14.07 -12.93,1.94 -24.14,-8.78 9.48,-7.19 17.28,-13.2 27.65,-21.62 5.71,-4.63 5.22,-3.81 9.4,-6.96l5.67 -3.86c7.73,-7.12 11.5,3.37 2.37,-7.22 -31.43,22.3 -101.18,76.05 -105.09,111.56 29.38,-5.73 65.27,-39.04 89.16,-54.32l-5.03 -8.8z"/>
    <path class="fil32" d="M1806.81 5217.91l8.14 -5.23c1.15,-1.2 18.77,-23.84 23.23,-28.56l40.76 -0.06c-18.49,-19.85 -64.41,-27.12 -90.2,-26.16 3.37,22.16 12.48,31.02 22.96,44.4l-4.89 15.61z"/>
    <path class="fil79" d="M4177.15 5484.35c-6.92,-11.21 -9.81,-15.85 -15.8,-24.95 -1.35,-2.04 -5.72,-7.37 -6.44,-9.12 -5.22,-12.67 -7.93,0.03 0.68,-11.2 -7.25,-9.53 -65.39,-46.38 -78.92,-51.94 5.76,15.42 31.58,43.53 41.34,52.91 17.47,16.8 34.87,32.3 59.15,44.29z"/>
    <path class="fil80" d="M1676.69 5243.16c-21.57,-1.65 -10.37,6.17 -20.68,-13.69 -6.4,23.45 -4.71,40.59 19.53,41.78 36.34,1.78 36.98,-48.51 3.32,-50.16 1.97,2.47 4.4,-12.64 2.69,7.61 -1.77,20.82 0.37,5.15 -4.85,14.46z"/>
    <path class="fil81" d="M4451.47 4896.83c4.04,1.7 3.46,3.81 13.18,4.32 2.03,0.1 10.24,-1.26 12.09,-1.58l-10.59 16.82 20.64 -3.18c6.64,-27.78 1.23,-39.76 -25.8,-37.04l-9.52 20.65z"/>
    <path class="fil82" d="M1714.09 5462.2c11.14,-14.88 9.96,-10.72 8.71,-34.61l15.71 7.06c22.4,-9.34 5.74,-3.1 -12.69,-14.46l-27.45 -19.95c14.35,20.97 20.62,32.83 15.72,61.96z"/>
    <path class="fil83" d="M1939.59 5520.86l17.88 11.96c16.86,-30.5 14.12,-8.61 24.97,-40.16 -26.75,8.94 -11.34,10.66 -37.99,12.9 1.53,1.07 3.84,2.18 4.75,2.98 19.26,16.8 9.77,-8.7 7.28,7.44 -1.08,6.97 -16.41,4.85 -16.89,4.87z"/>
    <path class="fil84" d="M3283.7 5081.71c0.44,-2.12 13.61,-3.61 9.23,-19.93 -3.73,-13.91 -8.31,-10.32 -19.34,-11.49 -4.32,21.26 -8.23,20.26 10.11,31.43z"/>
    <path class="fil71" d="M3495.1 5151.55c17.72,5.21 7.64,4.55 18.19,-2.32 2.19,-23.28 5.22,-18.03 -14.1,-22.5 -7.93,14.77 -5.87,3.21 -4.08,24.82z"/>
    <path class="fil85" d="M3030 4877.39c22.39,-6.07 17.35,-0.95 19.44,-23.63 -22.41,5.99 -18.24,0.03 -19.44,23.63z"/>
    <path class="fil86" d="M2302.13 5042.02c-7.92,10.96 17.87,3.22 18.26,3.15 -1.7,-23 5.2,-9.27 -9.02,-20.03 -13.24,11.67 -4.04,-1.79 -9.24,16.89z"/>
    <path class="fil87" d="M3513.23 5100.99c9.89,8.13 10.72,10.28 21.39,2.26 -3.85,-15.78 1.93,-9.24 -16.74,-18.07l-4.65 15.81z"/>
    <path class="fil88" d="M3829.4 5207.4c2.27,1.41 2.14,14.39 23.92,0 -2.63,-2.88 2.53,-9.69 -12.93,-9 -19.51,0.87 -4.76,5.21 -11,9z"/>
    <polygon class="fil89" points="3348.03,5127.41 3350.02,5109.96 3329.9,5113.07 3332.49,5126.54 "/>
    <path class="fil90" d="M1934.69 5566.75c0.93,-1.36 5.73,-8.07 8.75,-12.54 4.06,-6 3.91,-5.43 8.66,-13.47 -12.12,3.87 -18.16,7 -32.57,8.88 11.51,3.48 11.28,2.48 15.15,17.13z"/>
    <path class="fil91" d="M3633.74 5158.34l13.96 3.09c2.43,-16.83 0.37,-14.85 -19.61,-17.61l5.65 14.52z"/>
    <path class="fil92" d="M3145.14 5038.54l-13.36 6.28 3.1 15.96c13.62,-6.52 14.72,2.26 10.26,-22.24z"/>
    <path class="fil91" d="M3756.72 5158.96c3.64,-5.97 3.09,2.89 3.28,-6.4 0.13,-6.31 -1.24,-8.75 -1.94,-10.81 -15.51,-0.78 -25.25,11.77 -1.34,17.21z"/>
    <path class="fil91" d="M3914.18 5164.54l14.45 -2.87 -6.85 -15.31c-12.01,11.74 -8.98,-0.35 -7.61,18.19z"/>
   </g>
   <path class="fil93" d="M4490.33 5726.82c21.45,-91.73 -116.51,-471.42 -109.07,-533.74 9.43,-78.93 111.74,-259.01 143.39,-350.08 28.5,-81.99 -27.28,-57.73 -73.09,-36.81 -85.54,39.07 -139.21,66.61 -209.28,117.44 -56.56,41.04 -86.6,75.74 -132.52,116.36 -87.19,77.11 -54.82,80.59 -154.07,88.19 -47.4,3.63 -109.11,3.11 -156.11,-0.14 -149.94,-10.37 -169.7,-36.83 -269.26,-57.81l20.08 -14.26c24.2,-10.87 45.05,-6.83 63.61,-29.02 -9.67,-48.85 -83.17,-42.86 -122.69,-25 -66.97,30.28 -66.55,27.25 -133.56,1.79 -44.69,-16.98 -82.4,-30.32 -129.56,-41.41 -27.44,-6.46 -121.22,-21.4 -135.82,-28.7 27.3,-35.49 49.97,-45.57 110.93,-47.89 -10.1,-45.24 -47.13,-69.43 -73.5,-94.43 -38.57,-36.57 -149.51,-110.08 -192.08,-150.13 -31.74,-29.87 -58.31,-49.56 -57.34,-114.61 -66.23,13.72 -182.17,146.19 -224.97,199.58 -23.12,28.84 -37.12,46.79 -57.56,77.17 -62.56,92.99 -113.4,81.79 -186.78,88.29 -79.25,7.02 -160.52,22.74 -232.5,41.76 -202.94,53.64 -251.04,98.93 -398.95,150.61 -128,44.73 -213.93,54.23 -357.49,124.89 -44.07,21.69 -38.35,47.21 -7.81,57.18l35.16 7.64c9.26,1.46 5.19,1.24 16.12,3.01 0.88,0.14 2.43,0.38 3.33,0.51l10.34 1.08c59.75,7.91 139.17,79.52 148.92,107.94 -37.52,15.29 -88.58,7.21 -120.8,-3.49l-43.25 -10.62c-37.57,-5.34 -21.82,-11.06 -44.01,-19.78 -13.14,16.87 -24.31,12.57 -7.28,45.96 18.81,36.88 60.79,66.04 98.48,88.6 52.57,31.45 119.86,50.48 190.27,64.03 74.26,14.29 112.76,57.54 205.23,43.66 20.52,-3.08 158.87,42.78 198.24,50.34 144.73,27.78 324.79,37.93 477.86,29.45 90.3,-5 75.19,-2.96 132.4,60.07 26.99,29.74 135.02,117.82 195.31,107.36 16.43,-34.65 12.09,-77.31 -3.91,-117.56 -15.8,-39.75 -62.78,-29.61 -72.98,-62.17 62.47,0.14 113.81,-3.32 173.3,-13.67 40.94,-7.12 114.9,-31.59 151.22,-19.91 68.74,22.11 96.08,97.49 199.74,162.85 153.54,96.82 212.63,-113.05 286.04,-211.19 27.26,-36.43 55.67,-59.88 88.67,-90.76 -31.83,3.43 -104.23,-7.96 -129.93,-33.87 40.2,-11.2 77.07,-26.5 123.65,-36.17 48.32,-10.03 91.43,-15.69 142.01,-19.46 157,-11.68 131.61,0.68 194.29,49.84 16,12.55 24.16,25.48 39.3,38.33 86.35,73.28 275.53,261.96 388.26,238.72z"/>
  </g>
  <path class="fil94" d="M2748.5 4294.67l-767.18 0 0 -1095.86 219.12 0 0 876.48 548.06 0 0 219.38zm865.26 0l-751.27 0 0 -1095.86 751.27 0 0 219.38 -532.15 0 0 219.12 359.98 0 0 219.38 -359.98 0 0 218.59 532.15 0 0 219.38zm77.21 -767.18c0,-45.39 8.61,-87.91 25.83,-127.82 17.48,-39.65 40.95,-74.35 70.69,-104.34 29.74,-29.74 64.69,-53.22 104.34,-70.69 39.65,-17.22 82.43,-25.83 127.56,-25.83l502.93 0 0 219.38 -502.93 0c-15.13,0 -29.48,2.61 -42.78,8.35 -13.3,5.48 -24.78,13.3 -34.69,23.22 -9.91,9.91 -17.74,21.65 -23.22,34.69 -5.74,13.3 -8.61,27.65 -8.61,43.04 0,15.13 2.87,29.48 8.61,43.04 5.48,13.57 13.3,25.3 23.22,35.22 9.91,9.91 21.39,17.74 34.69,23.22 13.3,5.74 27.65,8.35 42.78,8.35l219.38 0c45.39,0 88.17,8.61 128.08,25.83 39.91,16.95 74.87,40.43 104.61,70.17 29.74,29.74 53.21,64.69 70.43,104.6 16.96,40.17 25.56,82.69 25.56,128.08 0,45.39 -8.61,87.91 -25.56,127.82 -17.22,39.65 -40.69,74.34 -70.43,104.08 -29.74,30 -64.69,53.48 -104.61,70.69 -39.91,17.48 -82.69,26.09 -128.08,26.09l-486.76 0 0 -219.38 486.76 0c15.39,0 29.48,-2.87 42.78,-8.35 13.3,-5.74 24.78,-13.3 34.96,-23.22 9.91,-9.91 17.48,-21.65 23.21,-34.95 5.48,-13.04 8.35,-27.39 8.35,-42.78 0,-15.13 -2.87,-29.48 -8.35,-42.78 -5.74,-13.3 -13.3,-24.78 -23.21,-34.69 -10.17,-9.91 -21.65,-17.74 -34.96,-23.22 -13.3,-5.74 -27.39,-8.61 -42.78,-8.61l-219.38 0c-45.13,0 -87.91,-8.61 -127.56,-25.83 -39.65,-17.48 -74.6,-40.95 -104.34,-70.69 -29.74,-30 -53.21,-64.69 -70.69,-104.86 -17.22,-39.91 -25.83,-82.69 -25.83,-127.82zm1464.71 767.18l-218.59 0 0 -876.48 -329.2 0 0 -219.38 876.48 0 0 219.38 -328.68 0 0 876.48zm1484.27 -543.36c0,51.91 -6.78,101.99 -20.35,150.25 -13.56,48 -32.35,93.13 -56.87,135.12 -24.52,42 -54,80.35 -88.69,115.04 -34.7,34.69 -72.78,64.43 -114.52,88.95 -42,24.78 -86.86,43.82 -135.38,57.39 -48.26,13.57 -98.6,20.35 -150.52,20.35 -51.91,0 -101.99,-6.78 -150.25,-20.35 -48,-13.56 -93.13,-32.61 -135.12,-57.39 -42,-24.52 -80.35,-54.26 -115.04,-88.95 -34.69,-34.69 -64.43,-73.04 -89.21,-115.04 -24.52,-42 -43.56,-87.13 -57.13,-135.12 -13.57,-48.26 -20.35,-98.34 -20.35,-150.25 0,-51.91 6.78,-102.26 20.35,-150.52 13.56,-48.52 32.61,-93.65 57.13,-135.39 24.78,-41.74 54.52,-79.82 89.21,-114.52 34.69,-34.69 73.04,-64.17 115.04,-88.69 42,-24.52 87.13,-43.56 135.12,-56.87 48.26,-13.57 98.34,-20.35 150.25,-20.35 51.91,0 102.26,6.78 150.52,20.35 48.52,13.3 93.39,32.35 135.38,56.87 41.74,24.52 79.82,54 114.52,88.69 34.69,34.7 64.17,72.78 88.69,114.52 24.52,41.74 43.3,86.87 56.87,135.39 13.57,48.26 20.35,98.6 20.35,150.52zm-217.81 0c0,-48 -9.13,-93.13 -27.65,-135.65 -18.26,-42.52 -43.04,-79.56 -74.34,-110.87 -31.3,-31.3 -68.35,-56.08 -110.87,-74.6 -42.52,-18.26 -87.65,-27.39 -135.65,-27.39 -48.52,0 -93.65,9.13 -135.91,27.39 -42.52,18.52 -79.3,43.3 -110.86,74.6 -31.56,31.3 -56.61,68.35 -74.87,110.87 -18.52,42.52 -27.65,87.65 -27.65,135.65 0,48 9.13,92.86 27.65,134.86 18.26,42 43.3,78.78 74.87,110.34 31.56,31.82 68.34,56.61 110.86,75.13 42.26,18.26 87.39,27.39 135.91,27.39 48,0 93.13,-9.13 135.65,-27.39 42.52,-18.52 79.56,-43.3 110.87,-75.13 31.3,-31.56 56.08,-68.35 74.34,-110.34 18.52,-42 27.65,-86.87 27.65,-134.86zm1449.06 543.36l-218.6 0 0 -782.57c0,-15.39 -2.87,-29.48 -8.87,-42.78 -5.74,-13.3 -13.82,-24.78 -23.74,-34.69 -9.91,-9.91 -21.39,-17.74 -34.69,-23.48 -13.3,-5.48 -27.65,-8.35 -42.78,-8.35 -15.39,0 -29.48,2.87 -42.78,8.35 -13.3,5.74 -24.78,13.56 -34.95,23.48 -9.91,9.91 -17.48,21.39 -23.22,34.69 -5.48,13.3 -8.35,27.39 -8.35,42.78l0 782.57 -219.38 0 0 -782.57c0,-15.39 -2.87,-29.48 -8.35,-42.78 -5.74,-13.3 -13.3,-24.78 -23.22,-34.69 -10.17,-9.91 -21.65,-17.74 -34.96,-23.48 -13.3,-5.48 -27.39,-8.35 -42.78,-8.35 -15.13,0 -29.48,2.87 -42.78,8.35 -13.3,5.74 -24.78,13.56 -34.69,23.48 -9.91,9.91 -17.74,21.39 -23.48,34.69 -5.48,13.3 -8.35,27.39 -8.35,42.78l0 782.57 -219.38 0 0 -782.57c0,-45.39 8.61,-87.91 25.82,-128.08 16.96,-39.91 40.43,-74.87 70.17,-104.6 29.74,-29.74 64.69,-53.22 104.61,-70.43 40.17,-16.95 82.69,-25.56 128.08,-25.56 40.69,0 80.08,7.3 117.65,21.91 37.83,14.35 71.74,35.48 101.74,62.87 30,-27.39 63.91,-48.52 101.21,-62.87 37.56,-14.61 76.69,-21.91 117.38,-21.91 45.39,0 87.91,8.61 128.08,25.56 39.91,17.22 74.87,40.69 104.6,70.43 29.74,29.74 53.22,64.69 70.17,104.6 17.22,40.17 25.83,82.69 25.83,128.08l0 782.57zm840.48 -437.98l0 -219.38c0,-30 -5.74,-58.43 -17.22,-85.04 -11.48,-26.87 -27.13,-50.08 -46.95,-69.91 -19.83,-19.82 -43.04,-35.74 -69.91,-46.95 -26.61,-11.48 -55.04,-17.22 -85.04,-17.22 -30.26,0 -58.69,5.74 -85.3,17.22 -26.87,11.22 -50.08,27.13 -69.91,46.95 -19.82,19.83 -35.48,43.04 -46.95,69.91 -11.48,26.61 -17.22,55.04 -17.22,85.04l0 219.38 438.5 0zm219.38 437.98l-219.38 0 0 -219.38 -438.5 0 0 219.38 -218.6 0 0 -657.36c0,-60.52 11.48,-117.39 34.43,-170.6 22.96,-53.22 54,-99.91 93.65,-139.56 39.39,-39.65 85.82,-70.95 139.04,-93.91 53.22,-22.95 110.08,-34.43 170.86,-34.43 60.52,0 117.39,11.48 170.6,34.43 53.22,22.96 99.91,54.26 139.56,93.91 39.65,39.65 70.95,86.34 93.91,139.56 22.95,53.21 34.43,110.08 34.43,170.6l0 657.36z"/>
 </g>
</svg>
